<svg width="20" height="17" viewBox="0 0 20 17" fill="none" xmlns="http://www.w3.org/2000/svg">
<path fill-rule="evenodd" clip-rule="evenodd" d="M20 1.97303C19.2651 2.30769 18.4739 2.53401 17.644 2.63513C18.4915 2.11508 19.1419 1.29048 19.4483 0.308174C18.6547 0.789695 17.7778 1.14 16.841 1.3278C16.0944 0.510413 15.0273 0 13.8463 0C11.5819 0 9.74467 1.88395 9.74467 4.20729C9.74467 4.53714 9.77989 4.85735 9.85033 5.16552C6.4401 4.98977 3.41727 3.31648 1.39226 0.768027C1.03892 1.3916 0.837002 2.11508 0.837002 2.88552C0.837002 4.34453 1.56131 5.6326 2.66244 6.38738C1.99096 6.36692 1.35705 6.17551 0.802958 5.86253V5.91429C0.802958 7.95353 2.21753 9.65451 4.09579 10.0397C3.75183 10.1384 3.38909 10.1878 3.01462 10.1878C2.75048 10.1878 2.49222 10.1625 2.24218 10.1132C2.76457 11.784 4.27892 13.0011 6.07501 13.0336C4.67101 14.1628 2.90075 14.8357 0.979046 14.8357C0.648001 14.8357 0.320479 14.8164 0 14.7779C1.81605 15.9697 3.9737 16.6667 6.28984 16.6667C13.8381 16.6667 17.9644 10.2564 17.9644 4.69604C17.9644 4.51306 17.9609 4.33008 17.9539 4.15072C18.7556 3.55724 19.4518 2.8169 20 1.97303Z" fill="#00AAEC"/>
<mask id="mask0" mask-type="alpha" maskUnits="userSpaceOnUse" x="0" y="0" width="20" height="17">
<path fill-rule="evenodd" clip-rule="evenodd" d="M20 1.97303C19.2651 2.30769 18.4739 2.53401 17.644 2.63513C18.4915 2.11508 19.1419 1.29048 19.4483 0.308174C18.6547 0.789695 17.7778 1.14 16.841 1.3278C16.0944 0.510413 15.0273 0 13.8463 0C11.5819 0 9.74467 1.88395 9.74467 4.20729C9.74467 4.53714 9.77989 4.85735 9.85033 5.16552C6.4401 4.98977 3.41727 3.31648 1.39226 0.768027C1.03892 1.3916 0.837002 2.11508 0.837002 2.88552C0.837002 4.34453 1.56131 5.6326 2.66244 6.38738C1.99096 6.36692 1.35705 6.17551 0.802958 5.86253V5.91429C0.802958 7.95353 2.21753 9.65451 4.09579 10.0397C3.75183 10.1384 3.38909 10.1878 3.01462 10.1878C2.75048 10.1878 2.49222 10.1625 2.24218 10.1132C2.76457 11.784 4.27892 13.0011 6.07501 13.0336C4.67101 14.1628 2.90075 14.8357 0.979046 14.8357C0.648001 14.8357 0.320479 14.8164 0 14.7779C1.81605 15.9697 3.9737 16.6667 6.28984 16.6667C13.8381 16.6667 17.9644 10.2564 17.9644 4.69604C17.9644 4.51306 17.9609 4.33008 17.9539 4.15072C18.7556 3.55724 19.4518 2.8169 20 1.97303Z" fill="white"/>
</mask>
<g mask="url(#mask0)">
<rect y="-2" width="20" height="20" fill="#1C1E20"/>
<path fill-rule="evenodd" clip-rule="evenodd" d="M28.1827 -3.90617C28.1645 -3.89888 28.144 -3.88841 28.1219 -3.87709C28.0653 -3.84813 27.998 -3.81365 27.9299 -3.81294C27.8317 -3.81144 27.7654 -3.98993 27.8287 -4.08666C27.8626 -4.13901 27.9469 -4.18438 28.0107 -4.18687C28.1413 -4.19186 28.2316 -4.06472 28.1827 -3.90617ZM20.0111 -3.57622C19.9487 -3.29364 20.1568 -3.02115 20.4516 -3.00097C20.7194 -2.98223 20.9865 -3.22948 20.9997 -3.50846C21.0094 -3.71102 20.813 -3.96332 20.6244 -3.99288C20.3344 -4.03829 20.0742 -3.86168 20.0111 -3.57622ZM19.5559 -2.00116C19.8019 -2.01733 20.0006 -2.20849 20 -2.43026C20 -2.72942 19.7847 -2.98988 19.53 -2.9997C19.2766 -3.00952 19.0127 -2.7479 19.0004 -2.47473C18.9881 -2.20791 19.2538 -1.98152 19.5559 -2.00116ZM30.4819 -1.99756C30.791 -1.96478 31.0309 -1.70204 30.9968 -1.43383C30.9605 -1.15072 30.6525 -0.94708 30.3588 -1.01215C30.1115 -1.06728 29.9767 -1.27489 30.0033 -1.55849C30.0289 -1.83167 30.2389 -2.02388 30.4819 -1.99756ZM23.997 1.56773C24.0297 1.2848 23.7882 1.02386 23.4728 1.00098C23.3283 0.99042 23.1646 1.06874 23.1056 1.19195L23.1035 1.19625C23.059 1.28871 23.0118 1.38665 23.0019 1.48545C22.9774 1.71734 23.1973 1.94571 23.4699 1.99411C23.7162 2.03767 23.9663 1.83526 23.997 1.56773ZM3.77545 3.02893C3.75161 3.01991 3.72779 3.01091 3.70683 3.0005C3.27631 2.98565 2.93301 3.32678 3.01115 3.69132C3.0666 3.94965 3.41898 4.08376 3.67356 3.94334C3.99064 3.76828 4.09651 3.40194 3.90293 3.10356C3.8804 3.0686 3.82787 3.04874 3.77545 3.02893ZM24 3.50871C23.9977 3.79441 23.7505 4.01784 23.4582 3.99891C23.2183 3.98365 23.0307 3.8054 23.0037 3.56793C22.9693 3.26575 23.1794 3.00752 23.4666 3.0002C23.7561 2.99287 24.0022 3.2279 24 3.50871ZM-0.0377293 10.5908C-0.0241261 10.5581 -0.0117359 10.5284 0 10.5031C-0.0176086 10.4533 -0.0309963 10.4113 -0.042676 10.3747C-0.0636911 10.3087 -0.0791769 10.2602 -0.103774 10.2145C-0.173821 10.0837 -0.411205 9.98474 -0.588919 10.002C-0.759498 10.0187 -0.957317 10.1709 -0.985855 10.316C-1.03515 10.5645 -0.959263 10.7796 -0.700476 10.945C-0.553246 11.0383 -0.263327 11.0114 -0.177713 10.8765C-0.116402 10.7795 -0.0729895 10.6753 -0.0377293 10.5908ZM22.998 2.3404C23.0152 2.5978 22.92 2.79306 22.7091 2.92557C22.5376 3.03287 22.3514 3.01704 22.1774 2.92381C22.028 2.84348 21.9647 2.62888 22.0194 2.4477C22.0748 2.26476 22.1983 2.14222 22.3692 2.05016C22.6255 1.91179 22.9722 2.07655 22.998 2.3404ZM19.5574 14.002C19.3059 13.9737 19.0088 14.2571 19.0002 14.5332C18.9934 14.7434 19.1927 14.9433 19.4584 14.9943C19.7223 15.0447 20.0286 14.7539 19.9979 14.4828C19.9702 14.2387 19.7752 14.026 19.5574 14.002ZM29.9989 7.44909C30.0122 7.63376 29.8995 7.83253 29.7307 7.93192C29.5514 8.03771 29.3704 8.01591 29.2161 7.89665C29.064 7.77867 28.9726 7.60618 29.0073 7.37984C29.0432 7.14772 29.2722 6.97588 29.5196 7.00281C29.7769 7.03038 29.9827 7.2221 29.9989 7.44909ZM-4.42494 -1.00672C-4.17395 -1.05785 -3.97024 -1.31542 -4.00359 -1.53934C-4.05088 -1.86164 -4.34673 -2.0655 -4.64259 -1.98072C-4.87176 -1.91406 -5.04819 -1.60989 -4.98817 -1.38338C-4.92633 -1.15039 -4.64441 -0.961421 -4.42494 -1.00672ZM19.5051 12.0003C19.7494 11.9915 19.9944 12.2229 19.9998 12.4681C20.0071 12.7553 19.8364 12.9685 19.5787 12.9961C19.2333 13.0331 18.9816 12.8042 19.0011 12.4706C19.0151 12.2342 19.2554 12.0097 19.5051 12.0003ZM-8.02513 17.6714C-7.92388 17.3741 -8.13779 17.0749 -8.50072 17.0059C-8.70251 16.9675 -8.93068 17.1223 -8.98131 17.3312C-9.06473 17.6727 -8.86152 17.9648 -8.51926 17.998C-8.30892 18.0188 -8.09572 17.8776 -8.02513 17.6714ZM21.4181 15.9941C21.1077 15.9382 20.9255 15.6223 21.0292 15.3204C21.109 15.0889 21.4082 14.9456 21.6568 15.0197C21.9041 15.0932 22.0517 15.3538 21.9832 15.5968C21.9121 15.8507 21.6488 16.036 21.4181 15.9941ZM18.3778 3.99481C18.6573 4.0393 18.9492 3.79393 18.9966 3.47374C19.0253 3.28634 18.8656 3.04367 18.6891 3.01266C18.3504 2.95267 18.0884 3.10906 18.011 3.42453C17.9517 3.66316 18.1401 3.95706 18.3778 3.99481ZM0.534416 3.99461C0.269055 4.03659 0.0246811 3.82994 0.00166512 3.5439C-0.0206738 3.26508 0.184439 3.02104 0.457922 3.00136C0.742236 2.98167 0.986611 3.18374 0.999473 3.44812C1.01166 3.71513 0.811284 3.95065 0.534416 3.99461ZM6.57506 2.9954C6.83414 2.95866 7.02301 2.72674 6.99773 2.47615C6.97386 2.24484 6.73374 2.01835 6.49291 2.00088C6.2563 1.98401 6.00284 2.22135 6.00003 2.4611C5.99652 2.77855 6.27596 3.03817 6.57506 2.9954ZM16 1.40964C15.9878 1.60702 15.9723 1.80886 15.7662 1.93048C15.557 2.05464 15.1886 2.00625 15.063 1.8356C14.9381 1.66496 15.0077 1.29566 15.1944 1.14858C15.2343 1.11675 15.2775 1.08809 15.3232 1.06453C15.6394 0.899623 15.9659 1.0639 16 1.40964ZM29.2477 9.88898L29.2477 9.889C29.2889 9.92382 29.3319 9.96008 29.3732 10C29.4295 9.97762 29.4854 9.95907 29.539 9.94127L29.5391 9.94125C29.6511 9.90407 29.7532 9.87018 29.8282 9.81137C30.0274 9.65517 30.0441 9.48428 29.926 9.29439C29.8166 9.11798 29.663 8.98751 29.4029 9.00099L29.3851 9.00189C29.3331 9.00443 29.2767 9.00719 29.2377 9.02916C29.045 9.13697 28.9327 9.45794 29.0442 9.67355C29.0856 9.7522 29.1631 9.81756 29.2477 9.88898ZM9.99685 10.5258C9.95611 10.8855 9.6442 11.086 9.31192 10.9644C9.04075 10.8658 8.92765 10.5978 9.04778 10.3406C9.17633 10.0682 9.45452 9.93641 9.70531 10.03C9.89991 10.1019 10.0214 10.3081 9.99685 10.5258ZM28.5492 3.99902C28.8104 3.98162 29.0083 3.73791 28.9997 3.44343C28.9857 3.41336 28.9737 3.38082 28.9617 3.34828C28.9358 3.27797 28.9098 3.20762 28.8638 3.162C28.6699 2.97269 28.3671 2.9386 28.1705 3.11703C28.0716 3.2077 27.9944 3.39846 28.0003 3.53989C28.0115 3.80609 28.2978 4.01643 28.5492 3.99902ZM20.5638 11.9998C20.2597 11.9885 19.9931 11.7322 20.0001 11.4583C20.0056 11.2352 20.2315 11.0007 20.4403 11C20.7201 10.9993 21.0023 11.274 21 11.5458C20.9984 11.7802 20.7795 12.0076 20.5638 11.9998ZM6.97566 17.5361L6.97573 17.5359C6.98256 17.5104 6.99035 17.4814 7 17.447C6.98085 17.415 6.96249 17.3784 6.94316 17.3398L6.94316 17.3398L6.94315 17.3397C6.89595 17.2455 6.843 17.1397 6.75883 17.0626C6.61459 16.9305 6.26872 17.0221 6.12138 17.2019C6.08571 17.2445 6.05624 17.2928 6.03376 17.3426C5.91899 17.6048 6.11053 17.9394 6.40211 17.9934C6.627 18.0332 6.85654 17.8904 6.94106 17.6545C6.95319 17.6198 6.96268 17.5844 6.97555 17.5365L6.97556 17.5365L6.97565 17.5362L6.97566 17.5361ZM13.9972 13.5002C14.0217 13.7528 13.8826 13.9744 13.6831 13.9962C13.4194 14.0244 13.2452 13.8925 13.1076 13.7091C13.0052 13.5722 12.9479 13.4043 13.0656 13.2653C13.1642 13.1489 13.3162 13.0113 13.4553 13.0007C13.5952 12.9901 13.7672 13.1058 13.8872 13.2053C13.9382 13.247 13.9552 13.3246 13.9722 13.402L13.9722 13.402L13.9722 13.402L13.9722 13.402L13.9722 13.402L13.9722 13.4021L13.9722 13.4021L13.9722 13.4021L13.9722 13.4021L13.9722 13.4021L13.9722 13.4021L13.9722 13.4022L13.9722 13.4022L13.9722 13.4022L13.9723 13.4022L13.9723 13.4022L13.9723 13.4022L13.9723 13.4023L13.9723 13.4023L13.9723 13.4023L13.9723 13.4023L13.9723 13.4023L13.9723 13.4023L13.9723 13.4024L13.9723 13.4024L13.9723 13.4024L13.9723 13.4024L13.9723 13.4024C13.9797 13.4361 13.987 13.4697 13.9972 13.5002ZM28.4847 13.0001C28.7164 12.9974 28.9591 13.2069 28.9952 13.4419C29.0334 13.6903 28.8385 13.9722 28.6112 13.9969C28.3001 14.0314 27.9993 13.7733 28 13.472C28.0007 13.2466 28.2523 13.0018 28.4847 13.0001ZM5.9276 16.5184C5.94925 16.4617 5.97213 16.4017 6 16.3406C5.96414 16.3023 5.93091 16.2596 5.89845 16.2179C5.8269 16.1259 5.7591 16.0388 5.67518 16.0138C5.54185 15.9751 5.35888 16.0229 5.22839 16.0957C5.02768 16.2079 4.95676 16.4521 5.02555 16.6864C5.0752 16.8525 5.16739 17.0201 5.3525 16.9981C5.49859 16.9806 5.66597 16.9207 5.76951 16.8168C5.84093 16.7456 5.88149 16.6393 5.9276 16.5184ZM-10.0183 10.7025C-10.0756 10.9178 -10.3268 11.0468 -10.5712 10.9842C-10.8988 10.9019 -11.0805 10.5957 -10.9652 10.3218C-10.8652 10.0844 -10.6376 9.95702 -10.4139 10.0132C-10.1229 10.0852 -9.93962 10.4057 -10.0183 10.7025ZM-0.98345 12.3179C-1.06737 12.5835 -0.819799 12.9445 -0.519355 12.9961C-0.305351 13.0335 -0.0099411 12.7942 -0.000709534 12.5747C0.0110397 12.31 -0.123238 12.1199 -0.390113 12.0261C-0.636008 11.9402 -0.90708 12.0738 -0.98345 12.3179ZM29.4239 3.05176e-05C29.3928 -0.0217514 29.3544 -0.0431886 29.3133 -0.0660481C29.2119 -0.122569 29.095 -0.187782 29.0348 -0.288393C28.8959 -0.521127 29.1956 -0.917606 29.5312 -0.994075C29.7521 -1.04478 30.0243 -0.758848 29.9983 -0.50201C29.9739 -0.26512 29.7286 -0.0282302 29.4239 3.05176e-05ZM29.6759 4.99307C29.8549 4.96546 30.0139 4.71104 29.999 4.47378C29.9813 4.17832 29.7142 3.95599 29.438 4.00747C29.1873 4.05447 29.0104 4.22906 29.0005 4.44095C28.9856 4.767 29.3286 5.04828 29.6759 4.99307ZM28.4136 8.9968C28.1825 8.96603 27.9638 8.67966 28.0051 8.45997C28.0579 8.17873 28.2398 8.00349 28.4839 8.00007C28.794 7.99579 29.0787 8.36252 28.9802 8.63777C28.9019 8.8549 28.6339 9.02587 28.4136 8.9968ZM23.9517 -3.34295C23.9671 -3.38309 23.9825 -3.42328 24 -3.45986C23.9838 -3.49668 23.9694 -3.53604 23.955 -3.57544V-3.57545L23.955 -3.57548L23.955 -3.57551L23.955 -3.57557L23.9549 -3.57565L23.9549 -3.57577L23.9548 -3.57595L23.9548 -3.57598C23.9233 -3.66226 23.8917 -3.74868 23.841 -3.80899C23.6634 -4.02013 23.4363 -4.02568 23.2085 -3.97012C23.0753 -3.93863 22.9614 -3.63304 23.0124 -3.45894C23.1338 -3.04129 23.5436 -2.86163 23.8306 -3.12C23.8852 -3.16941 23.9184 -3.25607 23.9517 -3.34295ZM22.4071 -0.997363C22.4295 -0.997363 22.4507 -0.998068 22.471 -0.998745C22.5121 -1.00011 22.5497 -1.00136 22.5863 -0.996444C22.6742 -0.984201 22.7573 -0.940262 22.8256 -0.877373C22.8213 -0.888963 22.8192 -0.901635 22.8199 -0.915253C22.8234 -0.982045 22.8503 -1.04741 22.8776 -1.11332L22.8776 -1.11335C22.8898 -1.14287 22.902 -1.17251 22.9122 -1.20243C22.9445 -1.1896 22.9755 -1.18 23.004 -1.17115C23.0609 -1.15353 23.1081 -1.13891 23.137 -1.1077C23.2168 -1.02145 23.1799 -0.894313 23.0767 -0.827504C23.0162 -0.788519 22.9353 -0.789602 22.8806 -0.818825C22.9642 -0.715815 23.0125 -0.582124 22.9972 -0.453986C22.9687 -0.221373 22.827 -0.103688 22.6651 -0.0319729C22.3929 0.0884709 22.0383 -0.14782 22.0023 -0.460423C21.9753 -0.690277 22.1912 -0.968861 22.4071 -0.997363ZM30.4928 3.99915C30.7676 3.98215 31.0201 3.73691 30.9987 3.50786C30.9765 3.2691 30.7137 3.01091 30.4817 3.00039C30.254 2.98906 30.0143 3.24725 30.0006 3.51919C29.9869 3.78467 30.2248 4.01615 30.4928 3.99915ZM15 2.68017C14.972 2.70482 14.942 2.7379 14.9098 2.77331C14.8314 2.85969 14.7404 2.95996 14.6351 2.98564C14.2836 3.06951 13.9748 2.77375 14.0016 2.43916C14.0214 2.20167 14.312 1.97567 14.5632 2.00215C14.8057 2.02864 14.985 2.2723 15 2.68017ZM13.0039 1.44257C12.9696 1.73006 13.1661 1.98847 13.4311 1.99959C13.7115 2.01071 13.9732 1.81049 13.9977 1.56749C14.0246 1.29284 13.8142 1.01818 13.5664 1.00106C13.3161 0.983096 13.0324 1.20214 13.0039 1.44257ZM18 1.53964C18.0032 1.28617 18.1928 1.03752 18.4082 1.00453C18.7115 0.958666 19.0727 1.27249 18.9873 1.52676C18.9042 1.77299 18.7279 1.94278 18.4678 1.99508C18.25 2.03853 17.9969 1.78828 18 1.53964ZM9.57065 4.99995C9.75996 5.00461 9.96285 4.81415 9.99365 4.60316C10.0389 4.28946 9.83604 3.9991 9.57155 4.00003C9.30888 4.00003 8.9991 4.26985 9 4.49672C9 4.72826 9.30072 4.99248 9.57065 4.99995ZM-0.00249863 4.56446C-0.0296421 4.83508 -0.277434 5.027 -0.56025 4.99693C-0.791406 4.97217 -1.02869 4.66793 -0.997169 4.43445C-0.963898 4.19655 -0.695967 3.99313 -0.422782 4.00021C-0.186373 4.00552 0.0255203 4.28941 -0.00249863 4.56446ZM25.5825 -1.00562C25.8252 -1.03581 26.0291 -1.26956 25.9966 -1.47932C25.9493 -1.78351 25.6569 -2.03662 25.3995 -1.99559C25.1312 -1.95147 24.9319 -1.59001 25.0219 -1.30671C25.0886 -1.09386 25.3165 -0.971564 25.5825 -1.00562ZM4.99949 15.4694C5.01076 15.7289 4.83298 15.9512 4.58038 15.9926C4.24815 16.0473 3.97384 15.7919 4.00199 15.4627C4.02049 15.2513 4.29963 15 4.50718 15C4.7115 15 4.99064 15.2654 4.99949 15.4694ZM18.88 16.8747L18.88 16.8747C18.9179 16.8494 18.9531 16.826 18.9838 16.8106C19.0688 16.411 18.808 16.0153 18.4605 16.0002C18.3121 15.9936 18.1294 16.1516 18.017 16.2879C17.9698 16.3443 18.0281 16.5802 18.1036 16.6667C18.2315 16.8115 18.4005 16.9694 18.5695 16.9976C18.6704 17.0145 18.7838 16.9389 18.88 16.8747ZM26.753 -0.713848C26.7677 -0.735263 26.7839 -0.765621 26.8015 -0.798592C26.8454 -0.880726 26.898 -0.979074 26.9574 -0.995786C27.1344 -1.04533 27.2894 -0.64539 27.2366 -0.297696C27.2196 -0.186001 27.1568 -0.0463829 27.099 -0.0139556C26.9389 0.0752196 26.75 -0.274276 26.753 -0.713848ZM29.224 -2.10833L29.2241 -2.10823L29.2242 -2.10805C29.2532 -2.07236 29.2798 -2.0397 29.3003 -2.01012C29.7171 -1.9601 29.9118 -2.09476 29.9929 -2.4189C30.0493 -2.64589 29.7581 -2.99215 29.5035 -2.99984C29.2516 -3.00754 28.9305 -2.66416 29.0133 -2.43909C29.0605 -2.30943 29.1502 -2.19906 29.224 -2.10833ZM0.332886 10.7564C0.64024 10.7539 0.895033 10.8452 0.987684 10.9917C1.05005 11.0905 0.863852 11.2495 0.692802 11.2435C0.388121 11.2336 0.172526 11.1423 0.0201855 11.0017C-0.0671206 10.9209 0.145801 10.7579 0.332886 10.7564ZM24.5414 9.99946C24.7544 10.0127 24.9949 9.79277 24.9998 9.57759C25.0077 9.26048 24.7838 9.02453 24.4531 9.00094C24.2263 8.98489 24.0104 9.18403 24.0005 9.41715C23.9878 9.74464 24.2037 9.97776 24.5414 9.99946ZM15.4299 18.0037C15.6896 17.9653 16.0305 18.2335 15.9978 18.5025C15.9773 18.6737 15.8269 18.8886 15.6681 18.9716C15.4448 19.0877 15.0488 18.8257 15.0096 18.5933C14.9563 18.278 15.1291 18.036 15.4299 18.0037ZM24.8577 13.1208L24.8577 13.1208C24.8912 13.1052 24.9213 13.0913 24.9468 13.0822C25.0441 12.9501 25.0052 12.8818 24.8522 12.8439L24.8353 12.8398C24.7203 12.8119 24.595 12.7816 24.4757 12.7816C24.2105 12.7811 23.899 12.99 24.0316 13.0812C24.1401 13.1555 24.3672 13.2223 24.5351 13.2183C24.6538 13.2154 24.7681 13.1624 24.8577 13.1208ZM24.6282 16C24.2213 15.981 23.9796 15.7201 24.0014 15.4182C24.0174 15.2078 24.2543 14.9926 24.462 15.0002C24.7622 15.0097 25.07 15.3068 24.986 15.5725C24.9449 15.7014 24.831 15.8066 24.7331 15.8971C24.6936 15.9336 24.6567 15.9677 24.6282 16ZM19.4113 5.24546C19.746 5.26341 19.9722 5.18464 19.9985 5.04055C20.0222 4.90842 19.7629 4.73542 19.4986 4.75337C19.3308 4.76533 19.13 4.83763 19.0342 4.91939C18.9055 5.02908 19.1639 5.232 19.4113 5.24546ZM-5.00012 7.49645C-5.00574 7.75621 -5.3307 8.04823 -5.56856 7.99331C-5.87479 7.92357 -6.03961 7.69868 -5.99185 7.39882C-5.95439 7.16956 -5.78676 7.05712 -5.56482 7.00656C-5.32321 6.95251 -4.99263 7.24453 -5.00012 7.49645ZM3.9094 1.73206C3.94037 1.69244 3.96993 1.65461 4 1.62351C3.98766 1.56846 3.9803 1.51715 3.97348 1.46961V1.4696C3.95984 1.37453 3.94837 1.29454 3.90355 1.22987C3.79444 1.07114 3.60252 0.953287 3.37066 1.01822C3.16608 1.07595 3.0102 1.20582 3.00046 1.41106C2.98487 1.72612 3.36871 2.08929 3.63564 1.98026C3.75258 1.93271 3.83503 1.82722 3.9094 1.73206ZM24.9995 0.402843C25.013 0.675986 24.7705 0.963065 24.4971 0.99744C24.2283 1.03089 23.954 0.734517 24.0065 0.452084C24.0472 0.236542 24.1278 0.0442276 24.3849 0.00799465C24.717 -0.0393872 24.9868 0.128772 24.9995 0.402843ZM15.057 9.09098C15.0359 9.05959 15.0158 9.02972 14.999 9.00003C14.8106 9.13398 14.7318 9.50108 14.8126 9.74318C14.8918 9.98031 15.0135 10.0746 15.0923 9.93467C15.1765 9.78485 15.2593 9.59336 15.1975 9.36813C15.166 9.2534 15.1084 9.16762 15.057 9.09098ZM4.22362 16.954C4.2038 16.9793 4.18517 17.0063 4.16652 17.0333C4.12373 17.0952 4.08083 17.1573 4.02319 17.1993C3.95389 17.2492 3.7749 17.1001 3.77639 17.0084C3.77739 16.9161 3.92148 16.7711 4.0187 16.793C4.0625 16.803 4.10011 16.8392 4.14609 16.8835L4.1461 16.8835L4.14614 16.8835C4.16924 16.9058 4.19445 16.93 4.22362 16.954ZM24.9945 -2.81295C24.8763 -2.79799 24.7701 -2.90468 24.8035 -3.02534C24.82 -3.08467 24.8773 -3.15347 24.9332 -3.17741C25.0314 -3.21929 25.1715 -3.13453 25.1979 -3.0408C25.2258 -2.93958 25.1281 -2.8299 24.9945 -2.81295ZM22.0375 -3.16983C22.0107 -3.18136 21.9816 -3.19383 21.952 -3.20966C21.936 -3.18002 21.918 -3.1509 21.9002 -3.12179L21.9001 -3.12176C21.859 -3.05488 21.818 -2.98809 21.7999 -2.9155C21.78 -2.83522 21.9939 -2.75595 22.0881 -2.80581C22.2008 -2.86614 22.2392 -2.97981 22.1584 -3.09448C22.1346 -3.12817 22.0903 -3.1472 22.0375 -3.16983ZM15.8881 -3.20689C15.9133 -3.14513 15.9407 -3.07768 15.9683 -2.99997C16.0027 -3.06497 16.0354 -3.12074 16.0655 -3.17205C16.1261 -3.27531 16.1761 -3.36051 16.2081 -3.46659C16.2549 -3.62148 16.1597 -3.94295 16.0789 -3.98582C15.9354 -4.06277 15.7489 -3.81339 15.7838 -3.54063C15.798 -3.42818 15.8386 -3.32859 15.8881 -3.20689ZM23.1765 14.069C23.1513 14.0786 23.1266 14.0891 23.1021 14.0994C23.0376 14.1267 22.9747 14.1533 22.9093 14.1613C22.8859 14.1637 22.8166 14.0536 22.824 14.0037C22.8405 13.889 22.9831 13.8023 23.0604 13.8541C23.0933 13.8762 23.1116 13.9204 23.1347 13.9759C23.1465 14.0045 23.1596 14.036 23.1765 14.069ZM1.08759 14.1417L1.08765 14.1417L1.08773 14.1417L1.08783 14.1416C1.11759 14.139 1.14799 14.1364 1.17907 14.1348C1.16685 14.0994 1.15816 14.0662 1.15023 14.036C1.13488 13.9774 1.12242 13.9299 1.09282 13.898C1.01404 13.8138 0.870452 13.8472 0.826078 13.9623C0.807133 14.0117 0.844525 14.1358 0.872446 14.1413C0.940386 14.1546 1.01192 14.1483 1.08759 14.1417ZM7.01849 11.8118C7.15909 11.8313 7.23836 11.939 7.18502 12.0392C7.12618 12.1499 6.98758 12.2282 6.91529 12.1733C6.86194 12.1319 6.81956 12.0566 6.80311 11.9888C6.77469 11.8677 6.8744 11.7924 7.01849 11.8118ZM30.8009 10.9887C30.772 11.1039 30.8692 11.2041 31.0108 11.2051C31.0298 11.1935 31.051 11.1832 31.0722 11.1728C31.1202 11.1494 31.1683 11.1258 31.1908 11.0875C31.2397 11.0042 31.1455 10.8377 31.0522 10.8033C30.953 10.7669 30.8348 10.8536 30.8009 10.9887ZM6.00605 10.7656C6.12022 10.7422 6.21993 10.8329 6.2319 10.9571C6.24387 11.0882 6.17506 11.175 6.07086 11.2293C5.99657 11.2682 5.8126 11.1705 5.77969 11.0907C5.72684 10.9621 5.84251 10.7841 6.00605 10.7656ZM27.8294 18.935C27.7591 18.9953 27.8583 19.1613 28.0164 19.1922L28.0287 19.1787L28.0444 19.1623L28.0617 19.1446L28.0622 19.1441L28.0625 19.1438L28.0626 19.1437C28.1083 19.0974 28.161 19.044 28.1909 18.9799C28.2093 18.9405 28.1251 18.8054 28.1161 18.8078L28.1073 18.8105C28.0095 18.8396 27.904 18.8711 27.8294 18.935ZM-6.97307 18.8681L-6.97306 18.8681L-6.97304 18.8681L-6.97302 18.8681C-6.90672 18.9241 -6.85314 18.9693 -6.81543 19.0251C-6.76557 19.0989 -6.81493 19.1751 -6.90866 19.207C-7.03929 19.2519 -7.20631 19.2105 -7.20432 19.1208C-7.20298 19.0549 -7.17363 18.9897 -7.13699 18.9084L-7.13698 18.9084L-7.13695 18.9083C-7.11896 18.8684 -7.09921 18.8245 -7.08017 18.7748C-7.04162 18.8102 -7.0058 18.8404 -6.97307 18.8681ZM-5.93779 18.0761C-5.91978 18.0739 -5.90177 18.0717 -5.8838 18.0697C-5.88251 18.0578 -5.87996 18.0429 -5.87743 18.0281C-5.87214 17.9973 -5.86692 17.9667 -5.87333 17.964C-5.93615 17.9376 -6.00396 17.9172 -6.07176 17.9122C-6.08971 17.9107 -6.12411 17.9655 -6.1291 17.9974C-6.13359 18.0269 -6.10866 18.0872 -6.0947 18.0877C-6.04274 18.0892 -5.99023 18.0826 -5.93779 18.0761ZM2.22073 17.0249C2.20041 17.0406 2.17998 17.0579 2.15913 17.0755C2.10276 17.1232 2.04336 17.1734 1.97493 17.2029C1.93903 17.2188 1.8468 17.1575 1.8109 17.1082C1.74409 17.0159 1.78946 16.8664 1.88768 16.82C1.99936 16.7676 2.09858 16.7985 2.17486 16.8913C2.18908 16.9087 2.19534 16.9329 2.20369 16.9651C2.20822 16.9826 2.21336 17.0025 2.22073 17.0249ZM25.8632 16.0057L25.8637 16.0067L25.8662 16.0116L25.8675 16.0139C25.8977 16.0708 25.9281 16.1282 25.9595 16.1866C25.9916 16.1661 26.0226 16.1498 26.0507 16.135L26.0507 16.135C26.1046 16.1066 26.1476 16.0839 26.1669 16.0485C26.2298 15.9304 26.148 15.8022 26.0199 15.8142C25.9704 15.819 25.9231 15.8463 25.8758 15.8735C25.8544 15.8859 25.833 15.8982 25.8115 15.9084L25.8632 16.0057ZM28.9092 14.8152C28.9406 14.8312 28.9708 14.8435 28.9985 14.8548C29.052 14.8766 29.0957 14.8944 29.1191 14.9269C29.1904 15.0266 29.1465 15.1124 29.0214 15.1672C28.9356 15.2046 28.8538 15.1832 28.8474 15.0949C28.8429 15.0338 28.8626 14.971 28.8831 14.9056C28.8923 14.876 28.9017 14.846 28.9092 14.8152ZM18.961 8.18413C19.0702 8.23349 19.1868 8.15521 19.1998 8.02359C19.2133 7.88449 19.13 7.77978 19.0073 7.80471C18.9385 7.81867 18.8613 7.86205 18.8184 7.91639C18.7595 7.99168 18.8408 8.12929 18.961 8.18413ZM1.87761 7.09528L1.87761 7.09527C1.84442 7.01661 1.8185 6.95516 1.81983 6.89459C1.82232 6.79936 1.98436 6.73555 2.09006 6.78989C2.13842 6.81482 2.19476 6.92401 2.17681 6.95741C2.14445 7.01731 2.09379 7.06723 2.0281 7.13195C1.99866 7.16096 1.9662 7.19294 1.93101 7.23013C1.91308 7.17936 1.89441 7.13511 1.87761 7.09528ZM18.1273 6.02273C18.1544 5.98996 18.1841 5.95419 18.2186 5.91557C18.1695 5.89658 18.1241 5.87392 18.0825 5.85322C18.0008 5.8125 17.9343 5.77939 17.8861 5.79691C17.7749 5.8363 17.7644 5.9749 17.7988 6.09456C17.8272 6.19328 17.897 6.23915 17.9713 6.1848C18.0266 6.14428 18.0717 6.08982 18.1273 6.02277L18.1273 6.02275L18.1273 6.02273ZM13.2145 5.98698C13.1781 6.16098 13.0849 6.22979 12.9622 6.21583C12.8346 6.20137 12.7588 6.09766 12.7942 5.9805C12.8406 5.82843 12.9273 5.74617 13.0265 5.79802C13.0856 5.82899 13.1313 5.88591 13.1703 5.93462C13.186 5.95412 13.2005 5.9723 13.2145 5.98698ZM20.9093 6.17947C21.027 6.25226 21.1307 6.22833 21.2199 6.06579C21.2128 6.04809 21.2067 6.0256 21.2 6.00109C21.1824 5.93723 21.1612 5.85966 21.1107 5.8175C21.0175 5.74072 20.8978 5.79756 20.8166 5.8868C20.7418 5.96907 20.7866 6.10319 20.9093 6.17947ZM4.21489 4.98377C4.18946 5.17223 4.08775 5.2515 3.97308 5.21361C3.82301 5.16425 3.76517 5.08847 3.7911 4.96881C3.82101 4.8312 3.92821 4.73897 4.02942 4.79281C4.09008 4.82531 4.13636 4.885 4.1745 4.9342L4.17451 4.93421C4.18904 4.95295 4.20238 4.97016 4.21489 4.98377ZM-3.64417 4.98946C-3.36979 5.04807 -3.06909 4.85591 -3.01083 4.58689C-2.94975 4.30058 -3.15366 4.05078 -3.4553 4.00562C-3.71559 3.96623 -3.85372 4.14205 -3.96554 4.30827C-4.08958 4.49178 -3.85466 4.94527 -3.64417 4.98946ZM26.9358 9.8132C26.9709 9.83231 27.0043 9.84717 27.0345 9.86061C27.0934 9.8868 27.1401 9.90759 27.1641 9.94383C27.2225 10.0301 27.1262 10.1732 26.9926 10.1866C26.9353 10.1916 26.8141 10.1133 26.8186 10.0939C26.8342 10.0221 26.8676 9.95385 26.9016 9.88447C26.9132 9.86091 26.9248 9.83721 26.9358 9.8132ZM21.7579 10.13C21.831 10.1114 21.9104 10.0911 22 10.0714C21.9352 10.0327 21.8803 9.99378 21.8296 9.95785C21.7288 9.8863 21.6449 9.82673 21.5327 9.80515C21.3123 9.76278 21.1379 9.8605 21.0272 9.96719C20.9272 10.0634 21.1173 10.215 21.3622 10.2045C21.4887 10.1988 21.6103 10.1678 21.7579 10.13ZM16.9719 9.80467C17.0781 9.77126 17.1464 9.83059 17.1938 9.97867C17.2212 10.0649 17.2072 10.1243 17.1274 10.1681C16.9799 10.2489 16.8258 10.1906 16.7974 10.0365C16.773 9.90239 16.8647 9.84555 16.9719 9.80467ZM13.1287 8.85577C13.1083 8.82324 13.0866 8.7887 13.0654 8.75061C13.0302 8.77608 12.9949 8.79792 12.9616 8.81857C12.8932 8.86098 12.8329 8.89839 12.7967 8.95203C12.7179 9.0702 12.8525 9.23872 13.0176 9.24919C13.1153 9.25567 13.2479 9.14149 13.2235 9.04527C13.2077 8.98147 13.1709 8.92287 13.1287 8.85577ZM-3.09395 10.1825C-3.09987 10.1572 -3.10639 10.1316 -3.11298 10.1058L-3.11298 10.1058L-3.11298 10.1058L-3.11299 10.1058L-3.11299 10.1058C-3.13026 10.038 -3.14797 9.96859 -3.15627 9.89786C-3.15976 9.87293 -3.10691 9.8151 -3.08447 9.81759C-3.01318 9.82507 -2.92792 9.83554 -2.87856 9.87941C-2.80776 9.94273 -2.85164 10.1068 -2.94537 10.1661C-2.96397 10.178 -2.9896 10.1785 -3.02516 10.1792C-3.04487 10.1796 -3.06763 10.1801 -3.09395 10.1825ZM26.1327 11.017C26.1413 10.9926 26.1499 10.9682 26.1595 10.9479C26.1141 10.8631 26.0493 10.8472 25.9576 10.8741C25.8589 10.9035 25.807 10.9663 25.8643 11.0481C25.9022 11.1014 26.0044 11.1498 26.0623 11.1353C26.0938 11.1277 26.1132 11.0724 26.1327 11.017ZM8.0208 18.8685C8.07055 18.9058 8.11981 18.9436 8.16906 18.9815L8.16938 18.9817C8.15703 18.9969 8.1456 19.015 8.13415 19.0331L8.13414 19.0331L8.13413 19.0332L8.13412 19.0332C8.10952 19.0721 8.08489 19.1111 8.05122 19.1213C7.91062 19.1657 7.77849 19.0565 7.85129 18.9727C7.87995 18.9396 7.92248 18.9186 7.96514 18.8976L7.96516 18.8976C7.98409 18.8883 8.00303 18.8789 8.0208 18.8685ZM18.9737 17.1205C18.9957 17.1291 19.0177 17.1377 19.036 17.1471C19.1258 17.1152 19.1691 17.0439 19.1183 16.9671C19.0931 16.9298 19.0459 16.9071 18.9987 16.8844C18.9777 16.8744 18.9568 16.8643 18.9378 16.853C18.9292 16.8729 18.9176 16.8936 18.906 16.9143C18.8793 16.962 18.8526 17.0098 18.862 17.0484C18.87 17.0798 18.9221 17.1003 18.9737 17.1205ZM18.1509 11.0455C18.0981 11.1392 17.9226 11.1766 17.8692 11.0929C17.8383 11.043 17.8313 10.9413 17.8627 10.8999C17.8916 10.8615 17.9889 10.8545 18.0502 10.865C18.1419 10.8805 18.1728 10.9538 18.1509 11.0455ZM31.1687 6.03589C31.2186 5.9641 31.0849 5.83945 30.9688 5.84494C30.9542 5.85719 30.9378 5.8686 30.9214 5.88C30.8843 5.9057 30.8474 5.93136 30.8322 5.96659C30.7848 6.07578 30.89 6.18247 31.0136 6.14907C31.072 6.13361 31.1338 6.08625 31.1687 6.03589ZM14.1197 -0.00726795C14.0911 0.0140448 14.063 0.0353575 14.035 0.056561L13.9796 0.0984306C13.9462 0.0465789 13.9132 -0.00527334 13.8803 -0.0576239C13.8901 -0.0621004 13.9005 -0.0683928 13.9109 -0.0746961C13.9341 -0.0887523 13.9574 -0.102863 13.9736 -0.0970116C14.0105 -0.0836663 14.0436 -0.0601792 14.0771 -0.0364814C14.0911 -0.026536 14.1052 -0.0165534 14.1197 -0.00726795ZM22.8896 6.10555C22.9544 6.18383 23.1014 6.12998 23.1488 6.02279C23.1702 5.93653 23.1368 5.86723 23.0441 5.85826C22.9808 5.85277 22.8841 5.87222 22.8566 5.91509C22.8302 5.95648 22.8517 6.05968 22.8896 6.10555ZM-6.88289 4.08484C-6.90306 4.08591 -6.9244 4.08923 -6.94571 4.09254C-6.99392 4.10003 -7.04196 4.1075 -7.07584 4.08883C-7.14215 4.05393 -7.1252 3.97416 -7.04892 3.9223C-7.022 3.90386 -6.95419 3.89388 -6.9497 3.90286C-6.92776 3.94598 -6.91271 3.99283 -6.89758 4.03993C-6.89277 4.05491 -6.88795 4.06992 -6.88289 4.08484ZM29.0486 2.88988C29.0307 2.87849 29.0129 2.86711 28.997 2.85477C28.9808 2.86635 28.9616 2.87727 28.9423 2.8882C28.8985 2.91304 28.8547 2.93789 28.8474 2.97044C28.8369 3.0198 28.8868 3.11603 28.9337 3.13547C29.0414 3.18034 29.1889 3.06168 29.1466 2.97692C29.1283 2.94077 29.0884 2.91531 29.0486 2.88988ZM31.1638 0.989621C31.1547 1.00845 31.1468 1.03047 31.1389 1.05249C31.1207 1.10336 31.1024 1.15429 31.07 1.16612C31.0162 1.18606 30.9205 1.15315 30.8711 1.11078C30.8018 1.05045 30.8422 0.865974 30.9364 0.832071C30.9842 0.814874 31.0585 0.855348 31.1155 0.886395L31.1229 0.890404C31.1397 0.899337 31.1466 0.926735 31.1535 0.954165L31.1535 0.954208L31.1535 0.954238C31.1566 0.966591 31.1597 0.978946 31.1638 0.989621ZM20.9965 -0.863903C21.0181 -0.859159 21.0397 -0.854424 21.0591 -0.848C21.1479 -0.882402 21.1838 -0.950209 21.1334 -1.02948C21.099 -1.08283 21.0347 -1.14366 20.9769 -1.15114C20.8727 -1.1646 20.7999 -1.00555 20.8737 -0.915807C20.8985 -0.885391 20.9476 -0.874623 20.9965 -0.863903ZM27.029 13.0667L27.0169 13.0706C26.9975 13.077 26.9778 13.0836 26.9743 13.0787C26.9573 13.0553 26.9429 13.0224 26.9464 12.9954C26.9487 12.977 26.9621 12.9602 26.9756 12.9433C26.9818 12.9355 26.988 12.9277 26.9932 12.9197C26.9995 12.925 27.007 12.9301 27.0144 12.9352C27.0311 12.9467 27.0479 12.9582 27.0521 12.973C27.0572 12.9915 27.052 13.0128 27.0468 13.0341C27.0444 13.0439 27.042 13.0537 27.0406 13.0633L27.0365 13.0644L27.029 13.0667ZM5.02633 11.9305L5.02631 11.9304C5.01971 11.915 5.0131 11.8996 5.00698 11.8841C4.99852 11.8903 4.98768 11.8969 4.97684 11.9036C4.95252 11.9186 4.92813 11.9336 4.9302 11.9429C4.93965 11.9862 4.95757 12.0279 4.97548 12.0695C4.98214 12.0849 4.9888 12.1004 4.99501 12.1159C5.0036 12.1091 5.01481 12.1019 5.02593 12.0947C5.04906 12.0797 5.07182 12.0649 5.0698 12.0551C5.06146 12.0124 5.04391 11.9714 5.02633 11.9305ZM12.0045 11.9343L12.0188 11.939C12.0405 11.9459 12.0622 11.9528 12.0663 11.9658C12.0943 12.0481 12.0554 12.0879 11.9686 12.0645C11.9477 12.059 11.9207 12.0127 11.9252 11.9912C11.9283 11.9746 11.9475 11.9609 11.9667 11.9472C11.9751 11.9412 11.9835 11.9352 11.9905 11.9289C11.9948 11.9308 11.9996 11.9326 12.0045 11.9343ZM20.9444 8.95434C20.9348 8.95983 20.9253 8.96532 20.9157 8.96962C20.9185 8.97767 20.9204 8.98697 20.9223 8.99622C20.9263 9.01562 20.9302 9.03482 20.9417 9.04191C21.0259 9.09426 21.0808 9.07083 21.0843 8.98009C21.0848 8.96314 21.0354 8.93173 21.0085 8.93073C20.9874 8.92969 20.9659 8.94202 20.9444 8.95434ZM2.01738 4.85351L2.01739 4.85351C2.06677 4.87737 2.10664 4.89664 2.12554 4.92848C2.1739 5.00875 2.09812 5.18624 2.01835 5.18824C1.96301 5.18923 1.85781 5.1309 1.8593 5.10348C1.86287 5.03556 1.88541 4.96867 1.90928 4.89785L1.90929 4.89783L1.9093 4.8978C1.91871 4.86985 1.92834 4.84129 1.93708 4.81181C1.96528 4.82833 1.99253 4.8415 2.01738 4.85351ZM11.1019 10.904C11.093 10.8948 11.084 10.8856 11.0764 10.876C10.9692 10.853 10.8306 10.9508 10.8556 11.0375C10.8645 11.0694 10.9029 11.1053 10.9358 11.1163C11.06 11.1572 11.1657 11.0814 11.1447 10.9667C11.1406 10.9438 11.1214 10.924 11.1019 10.904ZM20.1075 10.0093L20.0448 10.0619L19.9709 10.124C19.9659 10.1123 19.9607 10.1008 19.9556 10.0892L19.9509 10.0789L19.9509 10.0787L19.9508 10.0786L19.9508 10.0786C19.9287 10.0293 19.9067 9.98005 19.8926 9.92851C19.8896 9.91954 19.9704 9.86818 19.9828 9.87716C20.0172 9.90254 20.0453 9.93612 20.0736 9.96982C20.0847 9.98312 20.0959 9.99644 20.1075 10.0093ZM27.9333 15.9514C27.9221 15.9571 27.9109 15.9629 27.9002 15.967C27.9026 15.9756 27.9043 15.9856 27.906 15.9955C27.9099 16.0179 27.9137 16.0404 27.9261 16.0473C27.957 16.0647 28.0094 16.0797 28.0353 16.0647C28.1315 16.0104 28.1191 15.9545 28.0049 15.9301C27.9835 15.9256 27.9583 15.9386 27.9333 15.9514ZM17.0854 15.053C17.0777 15.0611 17.0706 15.0703 17.0635 15.0795C17.0487 15.0988 17.0342 15.1176 17.0156 15.1233C16.9294 15.1507 16.8805 15.0216 16.9423 14.9179C16.9512 14.9029 16.9713 14.8942 16.9913 14.8855C17.0005 14.8815 17.0096 14.8776 17.0176 14.873C17.0411 14.9343 17.064 14.9957 17.0854 15.053ZM9.05974 15.0422C9.06756 15.0342 9.07536 15.0263 9.08287 15.0201C9.07956 15.0107 9.07698 14.9996 9.07438 14.9885C9.06837 14.9628 9.06229 14.9367 9.04697 14.9294C9.02254 14.9169 8.96919 14.9269 8.94975 14.9473C8.88992 15.0102 8.91385 15.0625 9.00958 15.076C9.02442 15.0781 9.04213 15.06 9.05974 15.0422ZM6.97183 -0.0311303L7.04063 0.0102515L6.95937 0.0311918L6.97183 -0.0311303ZM6.04285 0.865419C6.04085 0.857442 5.97255 0.854451 5.97005 0.861929C5.96467 0.876713 5.95823 0.89205 5.9517 0.907589C5.92984 0.959652 5.90703 1.01398 5.9197 1.05737C5.95161 1.16756 6.03686 1.17155 6.07775 1.06435C6.09396 1.02228 6.07521 0.965564 6.05735 0.911558C6.05215 0.895804 6.04701 0.880281 6.04285 0.865419ZM24.9267 1.97516L24.9268 1.97513C24.9695 1.95084 25.0125 1.92646 25.058 1.909C25.066 1.90601 25.1164 1.96484 25.1134 1.99027C25.1014 2.08151 25.0401 2.11342 24.9563 2.07553C24.9363 2.06621 24.9215 2.04541 24.9067 2.02456L24.9067 2.02447C24.9001 2.01524 24.8935 2.006 24.8865 1.99775C24.8999 1.99037 24.9133 1.98277 24.9267 1.97516ZM6.99806 -2.88417C7.08481 -2.90412 7.11523 -2.96893 7.09429 -3.05618C7.08482 -3.06281 7.07511 -3.07153 7.06539 -3.08026L7.06537 -3.08027C7.04436 -3.09914 7.02328 -3.11806 7.00454 -3.11601C6.90782 -3.10405 6.87541 -3.04073 6.91729 -2.95248C6.93175 -2.92207 6.97662 -2.87919 6.99806 -2.88417ZM16.996 12.0419L16.9606 11.9582L17.0394 11.9616L16.996 12.0419ZM-1.95762 14.0417L-1.99651 13.9584L-2.04238 14.0377L-1.95762 14.0417ZM-8.03988 9.9235C-7.99999 9.95042 -7.96011 9.97734 -7.92072 10.0048C-7.92893 10.0125 -7.93723 10.0223 -7.94557 10.0321C-7.96458 10.0544 -7.98377 10.0769 -8.00249 10.0766C-8.02941 10.0761 -8.06481 10.0327 -8.07827 10.0003C-8.08312 9.98849 -8.06966 9.96876 -8.05615 9.94894C-8.05022 9.94025 -8.04429 9.93155 -8.03988 9.9235ZM8.02666 8.91592C8.01682 8.90803 8.00699 8.90017 7.9995 8.89284C7.99288 8.90608 7.98558 8.91924 7.97826 8.93245C7.95967 8.96598 7.94092 8.9998 7.93269 9.03593C7.92996 9.04821 7.95128 9.06586 7.97251 9.08344C7.98232 9.09156 7.9921 9.09967 7.9995 9.10723C8.00639 9.09345 8.01398 9.07984 8.02157 9.06623C8.04036 9.03255 8.05914 8.99886 8.06731 8.96264C8.07005 8.95065 8.0483 8.93324 8.02666 8.91592ZM12.9698 15.9923L13.0302 15.9709L13.0217 16.0292L12.9698 15.9923ZM6.03316 -1.02939L5.96684 -1.00795L6.02518 -0.970553L6.03316 -1.02939ZM6.03016 -3.99L5.96984 -3.97205L5.97981 -4.02789L6.03016 -3.99ZM11.0381 -3.92294C11.0511 -3.94986 11.0641 -3.97629 11.079 -4.0067C11.0711 -4.01418 11.063 -4.02372 11.0549 -4.03334C11.0364 -4.05514 11.0176 -4.07734 10.9993 -4.077C10.9809 -4.07665 10.9628 -4.05373 10.9448 -4.0309C10.9368 -4.02084 10.9289 -4.01079 10.921 -4.00271L11.0381 -3.92294Z" fill="white"/>
</g>
</svg>
