<svg width="20" height="20" viewBox="0 0 20 20" fill="none" xmlns="http://www.w3.org/2000/svg">
<g clip-path="url(#clip0)">
<path fill-rule="evenodd" clip-rule="evenodd" d="M10 0C7.28416 0 6.94362 0.0115116 5.87701 0.0601777C4.81263 0.108725 4.08569 0.277786 3.44962 0.525007C2.79203 0.780524 2.23436 1.12246 1.67839 1.67839C1.12246 2.23436 0.780524 2.79203 0.525007 3.44962C0.277786 4.08569 0.108725 4.81263 0.0601777 5.87701C0.0115116 6.94362 0 7.28416 0 10C0 12.7158 0.0115116 13.0564 0.0601777 14.123C0.108725 15.1874 0.277786 15.9143 0.525007 16.5504C0.780524 17.208 1.12246 17.7656 1.67839 18.3216C2.23436 18.8775 2.79203 19.2195 3.44962 19.475C4.08569 19.7222 4.81263 19.8913 5.87701 19.9398C6.94362 19.9885 7.28416 20 10 20C12.7158 20 13.0564 19.9885 14.123 19.9398C15.1874 19.8913 15.9143 19.7222 16.5504 19.475C17.208 19.2195 17.7656 18.8775 18.3216 18.3216C18.8775 17.7656 19.2195 17.208 19.475 16.5504C19.7222 15.9143 19.8913 15.1874 19.9398 14.123C19.9885 13.0564 20 12.7158 20 10C20 7.28416 19.9885 6.94362 19.9398 5.87701C19.8913 4.81263 19.7222 4.08569 19.475 3.44962C19.2195 2.79203 18.8775 2.23436 18.3216 1.67839C17.7656 1.12246 17.208 0.780524 16.5504 0.525007C15.9143 0.277786 15.1874 0.108725 14.123 0.0601777C13.0564 0.0115116 12.7158 0 10 0ZM10 1.8018C12.6701 1.8018 12.9864 1.812 14.0409 1.86011C15.0158 1.90457 15.5453 2.06748 15.8977 2.20443C16.3645 2.38583 16.6976 2.60253 17.0475 2.95248C17.3975 3.30239 17.6142 3.63551 17.7956 4.10229C17.9325 4.45466 18.0954 4.98415 18.1399 5.95914C18.188 7.0136 18.1982 7.32989 18.1982 10C18.1982 12.6701 18.188 12.9864 18.1399 14.0409C18.0954 15.0158 17.9325 15.5453 17.7956 15.8977C17.6142 16.3645 17.3975 16.6976 17.0475 17.0475C16.6976 17.3975 16.3645 17.6142 15.8977 17.7956C15.5453 17.9325 15.0158 18.0954 14.0409 18.1399C12.9866 18.188 12.6703 18.1982 10 18.1982C7.32969 18.1982 7.01348 18.188 5.95914 18.1399C4.98415 18.0954 4.45466 17.9325 4.10229 17.7956C3.63551 17.6142 3.30239 17.3975 2.95248 17.0475C2.60257 16.6976 2.38583 16.3645 2.20443 15.8977C2.06748 15.5453 1.90457 15.0158 1.86011 14.0409C1.812 12.9864 1.8018 12.6701 1.8018 10C1.8018 7.32989 1.812 7.0136 1.86011 5.95914C1.90457 4.98415 2.06748 4.45466 2.20443 4.10229C2.38583 3.63551 2.60253 3.30239 2.95248 2.95248C3.30239 2.60253 3.63551 2.38583 4.10229 2.20443C4.45466 2.06748 4.98415 1.90457 5.95914 1.86011C7.0136 1.812 7.32989 1.8018 10 1.8018ZM4.86487 10C4.86487 7.16393 7.16393 4.86487 10 4.86487C12.8361 4.86487 15.1351 7.16393 15.1351 10C15.1351 12.8361 12.8361 15.1351 10 15.1351C7.16393 15.1351 4.86487 12.8361 4.86487 10ZM10 13.3333C8.15904 13.3333 6.66667 11.841 6.66667 10C6.66667 8.15904 8.15904 6.66667 10 6.66667C11.841 6.66667 13.3333 8.15904 13.3333 10C13.3333 11.841 11.841 13.3333 10 13.3333ZM15.338 5.86197C16.0008 5.86197 16.538 5.32474 16.538 4.66199C16.538 3.99924 16.0008 3.46197 15.338 3.46197C14.6753 3.46197 14.138 3.99924 14.138 4.66199C14.138 5.32474 14.6753 5.86197 15.338 5.86197Z" fill="white"/>
<mask id="mask0" mask-type="alpha" maskUnits="userSpaceOnUse" x="0" y="0" width="20" height="20">
<path fill-rule="evenodd" clip-rule="evenodd" d="M10 0C7.28416 0 6.94362 0.0115116 5.87701 0.0601777C4.81263 0.108725 4.08569 0.277786 3.44962 0.525007C2.79203 0.780524 2.23436 1.12246 1.67839 1.67839C1.12246 2.23436 0.780524 2.79203 0.525007 3.44962C0.277786 4.08569 0.108725 4.81263 0.0601777 5.87701C0.0115116 6.94362 0 7.28416 0 10C0 12.7158 0.0115116 13.0564 0.0601777 14.123C0.108725 15.1874 0.277786 15.9143 0.525007 16.5504C0.780524 17.208 1.12246 17.7656 1.67839 18.3216C2.23436 18.8775 2.79203 19.2195 3.44962 19.475C4.08569 19.7222 4.81263 19.8913 5.87701 19.9398C6.94362 19.9885 7.28416 20 10 20C12.7158 20 13.0564 19.9885 14.123 19.9398C15.1874 19.8913 15.9143 19.7222 16.5504 19.475C17.208 19.2195 17.7656 18.8775 18.3216 18.3216C18.8775 17.7656 19.2195 17.208 19.475 16.5504C19.7222 15.9143 19.8913 15.1874 19.9398 14.123C19.9885 13.0564 20 12.7158 20 10C20 7.28416 19.9885 6.94362 19.9398 5.87701C19.8913 4.81263 19.7222 4.08569 19.475 3.44962C19.2195 2.79203 18.8775 2.23436 18.3216 1.67839C17.7656 1.12246 17.208 0.780524 16.5504 0.525007C15.9143 0.277786 15.1874 0.108725 14.123 0.0601777C13.0564 0.0115116 12.7158 0 10 0ZM10 1.8018C12.6701 1.8018 12.9864 1.812 14.0409 1.86011C15.0158 1.90457 15.5453 2.06748 15.8977 2.20443C16.3645 2.38583 16.6976 2.60253 17.0475 2.95248C17.3975 3.30239 17.6142 3.63551 17.7956 4.10229C17.9325 4.45466 18.0954 4.98415 18.1399 5.95914C18.188 7.0136 18.1982 7.32989 18.1982 10C18.1982 12.6701 18.188 12.9864 18.1399 14.0409C18.0954 15.0158 17.9325 15.5453 17.7956 15.8977C17.6142 16.3645 17.3975 16.6976 17.0475 17.0475C16.6976 17.3975 16.3645 17.6142 15.8977 17.7956C15.5453 17.9325 15.0158 18.0954 14.0409 18.1399C12.9866 18.188 12.6703 18.1982 10 18.1982C7.32969 18.1982 7.01348 18.188 5.95914 18.1399C4.98415 18.0954 4.45466 17.9325 4.10229 17.7956C3.63551 17.6142 3.30239 17.3975 2.95248 17.0475C2.60257 16.6976 2.38583 16.3645 2.20443 15.8977C2.06748 15.5453 1.90457 15.0158 1.86011 14.0409C1.812 12.9864 1.8018 12.6701 1.8018 10C1.8018 7.32989 1.812 7.0136 1.86011 5.95914C1.90457 4.98415 2.06748 4.45466 2.20443 4.10229C2.38583 3.63551 2.60253 3.30239 2.95248 2.95248C3.30239 2.60253 3.63551 2.38583 4.10229 2.20443C4.45466 2.06748 4.98415 1.90457 5.95914 1.86011C7.0136 1.812 7.32989 1.8018 10 1.8018ZM4.86487 10C4.86487 7.16393 7.16393 4.86487 10 4.86487C12.8361 4.86487 15.1351 7.16393 15.1351 10C15.1351 12.8361 12.8361 15.1351 10 15.1351C7.16393 15.1351 4.86487 12.8361 4.86487 10ZM10 13.3333C8.15904 13.3333 6.66667 11.841 6.66667 10C6.66667 8.15904 8.15904 6.66667 10 6.66667C11.841 6.66667 13.3333 8.15904 13.3333 10C13.3333 11.841 11.841 13.3333 10 13.3333ZM15.338 5.86197C16.0008 5.86197 16.538 5.32474 16.538 4.66199C16.538 3.99924 16.0008 3.46197 15.338 3.46197C14.6753 3.46197 14.138 3.99924 14.138 4.66199C14.138 5.32474 14.6753 5.86197 15.338 5.86197Z" fill="white"/>
</mask>
<g mask="url(#mask0)">
<rect width="20" height="20" fill="#1C1E20"/>
<path fill-rule="evenodd" clip-rule="evenodd" d="M28.1827 -1.90617C28.1645 -1.89888 28.144 -1.88841 28.1219 -1.87709C28.0653 -1.84813 27.998 -1.81365 27.9299 -1.81294C27.8317 -1.81144 27.7654 -1.98993 27.8287 -2.08666C27.8626 -2.13901 27.9469 -2.18438 28.0107 -2.18687C28.1413 -2.19186 28.2316 -2.06472 28.1827 -1.90617ZM20.0111 -1.57622C19.9487 -1.29364 20.1568 -1.02115 20.4516 -1.00097C20.7194 -0.982228 20.9865 -1.22948 20.9997 -1.50846C21.0094 -1.71102 20.813 -1.96332 20.6244 -1.99288C20.3344 -2.03829 20.0742 -1.86168 20.0111 -1.57622ZM19.5559 -0.00115824C19.8019 -0.017329 20.0006 -0.20849 20 -0.43026C20 -0.729419 19.7847 -0.989884 19.53 -0.999702C19.2766 -1.00952 19.0127 -0.7479 19.0004 -0.47473C18.9881 -0.207913 19.2538 0.0184777 19.5559 -0.00115824ZM30.4819 0.0024395C30.791 0.0352206 31.0309 0.297965 30.9968 0.566173C30.9605 0.849281 30.6525 1.05292 30.3588 0.987855C30.1115 0.932723 29.9767 0.725111 30.0033 0.441506C30.0289 0.168331 30.2389 -0.0238845 30.4819 0.0024395ZM23.997 3.56773C24.0297 3.2848 23.7882 3.02386 23.4728 3.00098C23.3283 2.99042 23.1646 3.06874 23.1056 3.19195L23.1035 3.19625C23.059 3.28871 23.0118 3.38665 23.0019 3.48545C22.9774 3.71734 23.1973 3.94571 23.4699 3.99411C23.7162 4.03767 23.9663 3.83526 23.997 3.56773ZM3.77545 5.02893C3.75161 5.01991 3.72779 5.01091 3.70683 5.0005C3.27631 4.98565 2.93301 5.32678 3.01115 5.69132C3.0666 5.94965 3.41898 6.08376 3.67356 5.94334C3.99064 5.76828 4.09651 5.40194 3.90293 5.10356C3.8804 5.0686 3.82787 5.04874 3.77545 5.02893ZM24 5.50871C23.9977 5.79441 23.7505 6.01784 23.4582 5.99891C23.2183 5.98365 23.0307 5.8054 23.0037 5.56793C22.9693 5.26575 23.1794 5.00752 23.4666 5.0002C23.7561 4.99287 24.0022 5.2279 24 5.50871ZM-0.0377293 12.5908C-0.0241261 12.5581 -0.0117359 12.5284 0 12.5031C-0.0176086 12.4533 -0.0309963 12.4113 -0.042676 12.3747C-0.0636911 12.3087 -0.0791769 12.2602 -0.103774 12.2145C-0.173821 12.0837 -0.411205 11.9847 -0.588919 12.002C-0.759498 12.0187 -0.957317 12.1709 -0.985855 12.316C-1.03515 12.5645 -0.959263 12.7796 -0.700476 12.945C-0.553246 13.0383 -0.263327 13.0114 -0.177713 12.8765C-0.116402 12.7795 -0.0729895 12.6753 -0.0377293 12.5908ZM22.998 4.3404C23.0152 4.5978 22.92 4.79306 22.7091 4.92557C22.5376 5.03287 22.3514 5.01704 22.1774 4.92381C22.028 4.84348 21.9647 4.62888 22.0194 4.4477C22.0748 4.26476 22.1983 4.14222 22.3692 4.05016C22.6255 3.91179 22.9722 4.07655 22.998 4.3404ZM19.5574 16.002C19.3059 15.9737 19.0088 16.2571 19.0002 16.5332C18.9934 16.7434 19.1927 16.9433 19.4584 16.9943C19.7223 17.0447 20.0286 16.7539 19.9979 16.4828C19.9702 16.2387 19.7752 16.026 19.5574 16.002ZM29.9989 9.44909C30.0122 9.63376 29.8995 9.83253 29.7307 9.93192C29.5514 10.0377 29.3704 10.0159 29.2161 9.89665C29.064 9.77867 28.9726 9.60618 29.0073 9.37984C29.0432 9.14772 29.2722 8.97588 29.5196 9.00281C29.7769 9.03038 29.9827 9.2221 29.9989 9.44909ZM-4.42494 0.993278C-4.17395 0.942151 -3.97024 0.684577 -4.00359 0.460655C-4.05088 0.138364 -4.34673 -0.0654953 -4.64259 0.0192842C-4.87176 0.085943 -5.04819 0.390114 -4.98817 0.616624C-4.92633 0.849605 -4.64441 1.03858 -4.42494 0.993278ZM19.5051 14.0003C19.7494 13.9915 19.9944 14.2229 19.9998 14.4681C20.0071 14.7553 19.8364 14.9685 19.5787 14.9961C19.2333 15.0331 18.9816 14.8042 19.0011 14.4706C19.0151 14.2342 19.2554 14.0097 19.5051 14.0003ZM-8.02513 19.6714C-7.92388 19.3741 -8.13779 19.0749 -8.50072 19.0059C-8.70251 18.9675 -8.93068 19.1223 -8.98131 19.3312C-9.06473 19.6727 -8.86152 19.9648 -8.51926 19.998C-8.30892 20.0188 -8.09572 19.8776 -8.02513 19.6714ZM21.4181 17.9941C21.1077 17.9382 20.9255 17.6223 21.0292 17.3204C21.109 17.0889 21.4082 16.9456 21.6568 17.0197C21.9041 17.0932 22.0517 17.3538 21.9832 17.5968C21.9121 17.8507 21.6488 18.036 21.4181 17.9941ZM18.3778 5.99481C18.6573 6.0393 18.9492 5.79393 18.9966 5.47374C19.0253 5.28634 18.8656 5.04367 18.6891 5.01266C18.3504 4.95267 18.0884 5.10906 18.011 5.42453C17.9517 5.66316 18.1401 5.95706 18.3778 5.99481ZM0.534416 5.99461C0.269055 6.03659 0.0246811 5.82994 0.00166512 5.5439C-0.0206738 5.26508 0.184439 5.02104 0.457922 5.00136C0.742236 4.98167 0.986611 5.18374 0.999473 5.44812C1.01166 5.71513 0.811284 5.95065 0.534416 5.99461ZM6.57506 4.9954C6.83414 4.95866 7.02301 4.72674 6.99773 4.47615C6.97386 4.24484 6.73374 4.01835 6.49291 4.00088C6.2563 3.98401 6.00284 4.22135 6.00003 4.4611C5.99652 4.77855 6.27596 5.03817 6.57506 4.9954ZM16 3.40964C15.9878 3.60702 15.9723 3.80886 15.7662 3.93048C15.557 4.05464 15.1886 4.00625 15.063 3.8356C14.9381 3.66496 15.0077 3.29566 15.1944 3.14858C15.2343 3.11675 15.2775 3.08809 15.3232 3.06453C15.6394 2.89962 15.9659 3.0639 16 3.40964ZM29.2477 11.889L29.2477 11.889C29.2889 11.9238 29.3319 11.9601 29.3732 12C29.4295 11.9776 29.4854 11.9591 29.539 11.9413L29.5391 11.9412C29.6511 11.9041 29.7532 11.8702 29.8282 11.8114C30.0274 11.6552 30.0441 11.4843 29.926 11.2944C29.8166 11.118 29.663 10.9875 29.4029 11.001L29.3851 11.0019C29.3331 11.0044 29.2767 11.0072 29.2377 11.0292C29.045 11.137 28.9327 11.4579 29.0442 11.6735C29.0856 11.7522 29.1631 11.8176 29.2477 11.889ZM9.99685 12.5258C9.95611 12.8855 9.6442 13.086 9.31192 12.9644C9.04075 12.8658 8.92765 12.5978 9.04778 12.3406C9.17633 12.0682 9.45452 11.9364 9.70531 12.03C9.89991 12.1019 10.0214 12.3081 9.99685 12.5258ZM28.5492 5.99902C28.8104 5.98162 29.0083 5.73791 28.9997 5.44343C28.9857 5.41336 28.9737 5.38082 28.9617 5.34828C28.9358 5.27797 28.9098 5.20762 28.8638 5.162C28.6699 4.97269 28.3671 4.9386 28.1705 5.11703C28.0716 5.2077 27.9944 5.39846 28.0003 5.53989C28.0115 5.80609 28.2978 6.01643 28.5492 5.99902ZM20.5638 13.9998C20.2597 13.9885 19.9931 13.7322 20.0001 13.4583C20.0056 13.2352 20.2315 13.0007 20.4403 13C20.7201 12.9993 21.0023 13.274 21 13.5458C20.9984 13.7802 20.7795 14.0076 20.5638 13.9998ZM6.97566 19.5361L6.97573 19.5359C6.98256 19.5104 6.99035 19.4814 7 19.447C6.98085 19.415 6.96249 19.3784 6.94316 19.3398L6.94316 19.3398L6.94315 19.3397C6.89595 19.2455 6.843 19.1397 6.75883 19.0626C6.61459 18.9305 6.26872 19.0221 6.12138 19.2019C6.08571 19.2445 6.05624 19.2928 6.03376 19.3426C5.91899 19.6048 6.11053 19.9394 6.40211 19.9934C6.627 20.0332 6.85654 19.8904 6.94106 19.6545C6.95319 19.6198 6.96268 19.5844 6.97555 19.5365L6.97556 19.5365L6.97565 19.5362L6.97566 19.5361ZM13.9972 15.5002C14.0217 15.7528 13.8826 15.9744 13.6831 15.9962C13.4194 16.0244 13.2452 15.8925 13.1076 15.7091C13.0052 15.5722 12.9479 15.4043 13.0656 15.2653C13.1642 15.1489 13.3162 15.0113 13.4553 15.0007C13.5952 14.9901 13.7672 15.1058 13.8872 15.2053C13.9382 15.247 13.9552 15.3246 13.9722 15.402L13.9722 15.402L13.9722 15.402L13.9722 15.402L13.9722 15.402L13.9722 15.4021L13.9722 15.4021L13.9722 15.4021L13.9722 15.4021L13.9722 15.4021L13.9722 15.4021L13.9722 15.4022L13.9722 15.4022L13.9722 15.4022L13.9723 15.4022L13.9723 15.4022L13.9723 15.4022L13.9723 15.4023L13.9723 15.4023L13.9723 15.4023L13.9723 15.4023L13.9723 15.4023L13.9723 15.4023L13.9723 15.4024L13.9723 15.4024L13.9723 15.4024L13.9723 15.4024L13.9723 15.4024C13.9797 15.4361 13.987 15.4697 13.9972 15.5002ZM28.4847 15.0001C28.7164 14.9974 28.9591 15.2069 28.9952 15.4419C29.0334 15.6903 28.8385 15.9722 28.6112 15.9969C28.3001 16.0314 27.9993 15.7733 28 15.472C28.0007 15.2466 28.2523 15.0018 28.4847 15.0001ZM5.9276 18.5184C5.94925 18.4617 5.97213 18.4017 6 18.3406C5.96414 18.3023 5.93091 18.2596 5.89845 18.2179C5.8269 18.1259 5.7591 18.0388 5.67518 18.0138C5.54185 17.9751 5.35888 18.0229 5.22839 18.0957C5.02768 18.2079 4.95676 18.4521 5.02555 18.6864C5.0752 18.8525 5.16739 19.0201 5.3525 18.9981C5.49859 18.9806 5.66597 18.9207 5.76951 18.8168C5.84093 18.7456 5.88149 18.6393 5.9276 18.5184ZM-10.0183 12.7025C-10.0756 12.9178 -10.3268 13.0468 -10.5712 12.9842C-10.8988 12.9019 -11.0805 12.5957 -10.9652 12.3218C-10.8652 12.0844 -10.6376 11.957 -10.4139 12.0132C-10.1229 12.0852 -9.93962 12.4057 -10.0183 12.7025ZM-0.98345 14.3179C-1.06737 14.5835 -0.819799 14.9445 -0.519355 14.9961C-0.305351 15.0335 -0.0099411 14.7942 -0.000709534 14.5747C0.0110397 14.31 -0.123238 14.1199 -0.390113 14.0261C-0.636008 13.9402 -0.90708 14.0738 -0.98345 14.3179ZM29.4239 2.00003C29.3928 1.97825 29.3544 1.95681 29.3133 1.93395C29.2119 1.87743 29.095 1.81222 29.0348 1.71161C28.8959 1.47887 29.1956 1.08239 29.5312 1.00592C29.7521 0.955222 30.0243 1.24115 29.9983 1.49799C29.9739 1.73488 29.7286 1.97177 29.4239 2.00003ZM29.6759 6.99307C29.8549 6.96546 30.0139 6.71104 29.999 6.47378C29.9813 6.17832 29.7142 5.95599 29.438 6.00747C29.1873 6.05447 29.0104 6.22906 29.0005 6.44095C28.9856 6.767 29.3286 7.04828 29.6759 6.99307ZM28.4136 10.9968C28.1825 10.966 27.9638 10.6797 28.0051 10.46C28.0579 10.1787 28.2398 10.0035 28.4839 10.0001C28.794 9.99579 29.0787 10.3625 28.9802 10.6378C28.9019 10.8549 28.6339 11.0259 28.4136 10.9968ZM23.9517 -1.34295C23.9671 -1.38309 23.9825 -1.42328 24 -1.45986C23.9838 -1.49668 23.9694 -1.53604 23.955 -1.57544V-1.57545L23.955 -1.57548L23.955 -1.57551L23.955 -1.57557L23.9549 -1.57565L23.9549 -1.57577L23.9548 -1.57595L23.9548 -1.57598C23.9233 -1.66226 23.8917 -1.74868 23.841 -1.80899C23.6634 -2.02013 23.4363 -2.02568 23.2085 -1.97012C23.0753 -1.93863 22.9614 -1.63304 23.0124 -1.45894C23.1338 -1.04129 23.5436 -0.861633 23.8306 -1.12C23.8852 -1.16941 23.9184 -1.25607 23.9517 -1.34295ZM22.4071 1.00264C22.4295 1.00264 22.4507 1.00193 22.471 1.00126C22.5121 0.999887 22.5497 0.998635 22.5863 1.00356C22.6742 1.0158 22.7573 1.05974 22.8256 1.12263C22.8213 1.11104 22.8192 1.09837 22.8199 1.08475C22.8234 1.01796 22.8503 0.95259 22.8776 0.886681L22.8776 0.886653C22.8898 0.857125 22.902 0.827488 22.9122 0.797566C22.9445 0.810398 22.9755 0.819999 23.004 0.828846C23.0609 0.846467 23.1081 0.861094 23.137 0.892296C23.2168 0.978549 23.1799 1.10569 23.0767 1.1725C23.0162 1.21148 22.9353 1.2104 22.8806 1.18118C22.9642 1.28418 23.0125 1.41788 22.9972 1.54601C22.9687 1.77863 22.827 1.89631 22.6651 1.96803C22.3929 2.08847 22.0383 1.85218 22.0023 1.53958C21.9753 1.30972 22.1912 1.03114 22.4071 1.00264ZM30.4928 5.99915C30.7676 5.98215 31.0201 5.73691 30.9987 5.50786C30.9765 5.2691 30.7137 5.01091 30.4817 5.00039C30.254 4.98906 30.0143 5.24725 30.0006 5.51919C29.9869 5.78467 30.2248 6.01615 30.4928 5.99915ZM15 4.68017C14.972 4.70482 14.942 4.7379 14.9098 4.77331C14.8314 4.85969 14.7404 4.95996 14.6351 4.98564C14.2836 5.06951 13.9748 4.77375 14.0016 4.43916C14.0214 4.20167 14.312 3.97567 14.5632 4.00215C14.8057 4.02864 14.985 4.2723 15 4.68017ZM13.0039 3.44257C12.9696 3.73006 13.1661 3.98847 13.4311 3.99959C13.7115 4.01071 13.9732 3.81049 13.9977 3.56749C14.0246 3.29284 13.8142 3.01818 13.5664 3.00106C13.3161 2.9831 13.0324 3.20214 13.0039 3.44257ZM18 3.53964C18.0032 3.28617 18.1928 3.03752 18.4082 3.00453C18.7115 2.95867 19.0727 3.27249 18.9873 3.52676C18.9042 3.77299 18.7279 3.94278 18.4678 3.99508C18.25 4.03853 17.9969 3.78828 18 3.53964ZM9.57065 6.99995C9.75996 7.00461 9.96285 6.81415 9.99365 6.60316C10.0389 6.28946 9.83604 5.9991 9.57155 6.00003C9.30888 6.00003 8.9991 6.26985 9 6.49672C9 6.72826 9.30072 6.99248 9.57065 6.99995ZM-0.00249863 6.56446C-0.0296421 6.83508 -0.277434 7.027 -0.56025 6.99693C-0.791406 6.97217 -1.02869 6.66793 -0.997169 6.43445C-0.963898 6.19655 -0.695967 5.99313 -0.422782 6.00021C-0.186373 6.00552 0.0255203 6.28941 -0.00249863 6.56446ZM25.5825 0.994379C25.8252 0.964192 26.0291 0.730438 25.9966 0.520679C25.9493 0.216489 25.6569 -0.0366151 25.3995 0.00440788C25.1312 0.048527 24.9319 0.409994 25.0219 0.693285C25.0886 0.906141 25.3165 1.02844 25.5825 0.994379ZM4.99949 17.4694C5.01076 17.7289 4.83298 17.9512 4.58038 17.9926C4.24815 18.0473 3.97384 17.7919 4.00199 17.4627C4.02049 17.2513 4.29963 17 4.50718 17C4.7115 17 4.99064 17.2654 4.99949 17.4694ZM18.88 18.8747L18.88 18.8747C18.9179 18.8494 18.9531 18.826 18.9838 18.8106C19.0688 18.411 18.808 18.0153 18.4605 18.0002C18.3121 17.9936 18.1294 18.1516 18.017 18.2879C17.9698 18.3443 18.0281 18.5802 18.1036 18.6667C18.2315 18.8115 18.4005 18.9694 18.5695 18.9976C18.6704 19.0145 18.7838 18.9389 18.88 18.8747ZM26.753 1.28615C26.7677 1.26474 26.7839 1.23438 26.8015 1.20141C26.8454 1.11927 26.898 1.02093 26.9574 1.00421C27.1344 0.954672 27.2894 1.35461 27.2366 1.7023C27.2196 1.814 27.1568 1.95362 27.099 1.98604C26.9389 2.07522 26.75 1.72572 26.753 1.28615ZM29.224 -0.108325L29.2241 -0.108228L29.2242 -0.10805C29.2532 -0.0723562 29.2798 -0.0397046 29.3003 -0.0101171C29.7171 0.0398984 29.9118 -0.0947583 29.9929 -0.418896C30.0493 -0.645888 29.7581 -0.992148 29.5035 -0.999842C29.2516 -1.00754 28.9305 -0.664163 29.0133 -0.439094C29.0605 -0.309432 29.1502 -0.199057 29.224 -0.108325ZM0.332886 12.7564C0.64024 12.7539 0.895033 12.8452 0.987684 12.9917C1.05005 13.0905 0.863852 13.2495 0.692802 13.2435C0.388121 13.2336 0.172526 13.1423 0.0201855 13.0017C-0.0671206 12.9209 0.145801 12.7579 0.332886 12.7564ZM24.5414 11.9995C24.7544 12.0127 24.9949 11.7928 24.9998 11.5776C25.0077 11.2605 24.7838 11.0245 24.4531 11.0009C24.2263 10.9849 24.0104 11.184 24.0005 11.4171C23.9878 11.7446 24.2037 11.9778 24.5414 11.9995ZM15.4299 20.0037C15.6896 19.9653 16.0305 20.2335 15.9978 20.5025C15.9773 20.6737 15.8269 20.8886 15.6681 20.9716C15.4448 21.0877 15.0488 20.8257 15.0096 20.5933C14.9563 20.278 15.1291 20.036 15.4299 20.0037ZM24.8577 15.1208L24.8577 15.1208C24.8912 15.1052 24.9213 15.0913 24.9468 15.0822C25.0441 14.9501 25.0052 14.8818 24.8522 14.8439L24.8353 14.8398C24.7203 14.8119 24.595 14.7816 24.4757 14.7816C24.2105 14.7811 23.899 14.99 24.0316 15.0812C24.1401 15.1555 24.3672 15.2223 24.5351 15.2183C24.6538 15.2154 24.7681 15.1624 24.8577 15.1208ZM24.6282 18C24.2213 17.981 23.9796 17.7201 24.0014 17.4182C24.0174 17.2078 24.2543 16.9926 24.462 17.0002C24.7622 17.0097 25.07 17.3068 24.986 17.5725C24.9449 17.7014 24.831 17.8066 24.7331 17.8971C24.6936 17.9336 24.6567 17.9677 24.6282 18ZM19.4113 7.24546C19.746 7.26341 19.9722 7.18464 19.9985 7.04055C20.0222 6.90842 19.7629 6.73542 19.4986 6.75337C19.3308 6.76533 19.13 6.83763 19.0342 6.91939C18.9055 7.02908 19.1639 7.232 19.4113 7.24546ZM-5.00012 9.49645C-5.00574 9.75621 -5.3307 10.0482 -5.56856 9.99331C-5.87479 9.92357 -6.03961 9.69868 -5.99185 9.39882C-5.95439 9.16956 -5.78676 9.05712 -5.56482 9.00656C-5.32321 8.95251 -4.99263 9.24453 -5.00012 9.49645ZM3.9094 3.73206C3.94037 3.69244 3.96993 3.65461 4 3.62351C3.98766 3.56846 3.9803 3.51715 3.97348 3.46961V3.4696C3.95984 3.37453 3.94837 3.29454 3.90355 3.22987C3.79444 3.07114 3.60252 2.95329 3.37066 3.01822C3.16608 3.07595 3.0102 3.20582 3.00046 3.41106C2.98487 3.72612 3.36871 4.08929 3.63564 3.98026C3.75258 3.93271 3.83503 3.82722 3.9094 3.73206ZM24.9995 2.40284C25.013 2.67599 24.7705 2.96307 24.4971 2.99744C24.2283 3.03089 23.954 2.73452 24.0065 2.45208C24.0472 2.23654 24.1278 2.04423 24.3849 2.00799C24.717 1.96061 24.9868 2.12877 24.9995 2.40284ZM15.057 11.091C15.0359 11.0596 15.0158 11.0297 14.999 11C14.8106 11.134 14.7318 11.5011 14.8126 11.7432C14.8918 11.9803 15.0135 12.0746 15.0923 11.9347C15.1765 11.7848 15.2593 11.5934 15.1975 11.3681C15.166 11.2534 15.1084 11.1676 15.057 11.091ZM4.22362 18.954C4.2038 18.9793 4.18517 19.0063 4.16652 19.0333C4.12373 19.0952 4.08083 19.1573 4.02319 19.1993C3.95389 19.2492 3.7749 19.1001 3.77639 19.0084C3.77739 18.9161 3.92148 18.7711 4.0187 18.793C4.0625 18.803 4.10011 18.8392 4.14609 18.8835L4.1461 18.8835L4.14614 18.8835C4.16924 18.9058 4.19445 18.93 4.22362 18.954ZM24.9945 -0.812946C24.8763 -0.797988 24.7701 -0.904684 24.8035 -1.02534C24.82 -1.08467 24.8773 -1.15347 24.9332 -1.17741C25.0314 -1.21929 25.1715 -1.13453 25.1979 -1.0408C25.2258 -0.939584 25.1281 -0.829897 24.9945 -0.812946ZM22.0375 -1.16983C22.0107 -1.18136 21.9816 -1.19383 21.952 -1.20966C21.936 -1.18002 21.918 -1.1509 21.9002 -1.12179L21.9001 -1.12176C21.859 -1.05488 21.818 -0.98809 21.7999 -0.915495C21.78 -0.835224 21.9939 -0.75595 22.0881 -0.805808C22.2008 -0.866136 22.2392 -0.979812 22.1584 -1.09448C22.1346 -1.12817 22.0903 -1.1472 22.0375 -1.16983ZM15.8881 -1.20689C15.9133 -1.14513 15.9407 -1.07768 15.9683 -0.999969C16.0027 -1.06497 16.0354 -1.12074 16.0655 -1.17205C16.1261 -1.27531 16.1761 -1.36051 16.2081 -1.46659C16.2549 -1.62148 16.1597 -1.94295 16.0789 -1.98582C15.9354 -2.06277 15.7489 -1.81339 15.7838 -1.54063C15.798 -1.42818 15.8386 -1.32859 15.8881 -1.20689ZM23.1765 16.069C23.1513 16.0786 23.1266 16.0891 23.1021 16.0994C23.0376 16.1267 22.9747 16.1533 22.9093 16.1613C22.8859 16.1637 22.8166 16.0536 22.824 16.0037C22.8405 15.889 22.9831 15.8023 23.0604 15.8541C23.0933 15.8762 23.1116 15.9204 23.1347 15.9759C23.1465 16.0045 23.1596 16.036 23.1765 16.069ZM1.08759 16.1417L1.08765 16.1417L1.08773 16.1417L1.08783 16.1416C1.11759 16.139 1.14799 16.1364 1.17907 16.1348C1.16685 16.0994 1.15816 16.0662 1.15023 16.036C1.13488 15.9774 1.12242 15.9299 1.09282 15.898C1.01404 15.8138 0.870452 15.8472 0.826078 15.9623C0.807133 16.0117 0.844525 16.1358 0.872446 16.1413C0.940386 16.1546 1.01192 16.1483 1.08759 16.1417ZM7.01849 13.8118C7.15909 13.8313 7.23836 13.939 7.18502 14.0392C7.12618 14.1499 6.98758 14.2282 6.91529 14.1733C6.86194 14.1319 6.81956 14.0566 6.80311 13.9888C6.77469 13.8677 6.8744 13.7924 7.01849 13.8118ZM30.8009 12.9887C30.772 13.1039 30.8692 13.2041 31.0108 13.2051C31.0298 13.1935 31.051 13.1832 31.0722 13.1728C31.1202 13.1494 31.1683 13.1258 31.1908 13.0875C31.2397 13.0042 31.1455 12.8377 31.0522 12.8033C30.953 12.7669 30.8348 12.8536 30.8009 12.9887ZM6.00605 12.7656C6.12022 12.7422 6.21993 12.8329 6.2319 12.9571C6.24387 13.0882 6.17506 13.175 6.07086 13.2293C5.99657 13.2682 5.8126 13.1705 5.77969 13.0907C5.72684 12.9621 5.84251 12.7841 6.00605 12.7656ZM27.8294 20.935C27.7591 20.9953 27.8583 21.1613 28.0164 21.1922L28.0287 21.1787L28.0444 21.1623L28.0617 21.1446L28.0622 21.1441L28.0625 21.1438L28.0626 21.1437C28.1083 21.0974 28.161 21.044 28.1909 20.9799C28.2093 20.9405 28.1251 20.8054 28.1161 20.8078L28.1073 20.8105C28.0095 20.8396 27.904 20.8711 27.8294 20.935ZM-6.97307 20.8681L-6.97306 20.8681L-6.97304 20.8681L-6.97302 20.8681C-6.90672 20.9241 -6.85314 20.9693 -6.81543 21.0251C-6.76557 21.0989 -6.81493 21.1751 -6.90866 21.207C-7.03929 21.2519 -7.20631 21.2105 -7.20432 21.1208C-7.20298 21.0549 -7.17363 20.9897 -7.13699 20.9084L-7.13698 20.9084L-7.13695 20.9083C-7.11896 20.8684 -7.09921 20.8245 -7.08017 20.7748C-7.04162 20.8102 -7.0058 20.8404 -6.97307 20.8681ZM-5.93779 20.0761C-5.91978 20.0739 -5.90177 20.0717 -5.8838 20.0697C-5.88251 20.0578 -5.87996 20.0429 -5.87743 20.0281C-5.87214 19.9973 -5.86692 19.9667 -5.87333 19.964C-5.93615 19.9376 -6.00396 19.9172 -6.07176 19.9122C-6.08971 19.9107 -6.12411 19.9655 -6.1291 19.9974C-6.13359 20.0269 -6.10866 20.0872 -6.0947 20.0877C-6.04274 20.0892 -5.99023 20.0826 -5.93779 20.0761ZM2.22073 19.0249C2.20041 19.0406 2.17998 19.0579 2.15913 19.0755C2.10276 19.1232 2.04336 19.1734 1.97493 19.2029C1.93903 19.2188 1.8468 19.1575 1.8109 19.1082C1.74409 19.0159 1.78946 18.8664 1.88768 18.82C1.99936 18.7676 2.09858 18.7985 2.17486 18.8913C2.18908 18.9087 2.19534 18.9329 2.20369 18.9651C2.20822 18.9826 2.21336 19.0025 2.22073 19.0249ZM25.8632 18.0057L25.8637 18.0067L25.8662 18.0116L25.8675 18.0139C25.8977 18.0708 25.9281 18.1282 25.9595 18.1866C25.9916 18.1661 26.0226 18.1498 26.0507 18.135L26.0507 18.135C26.1046 18.1066 26.1476 18.0839 26.1669 18.0485C26.2298 17.9304 26.148 17.8022 26.0199 17.8142C25.9704 17.819 25.9231 17.8463 25.8758 17.8735C25.8544 17.8859 25.833 17.8982 25.8115 17.9084L25.8632 18.0057ZM28.9092 16.8152C28.9406 16.8312 28.9708 16.8435 28.9985 16.8548C29.052 16.8766 29.0957 16.8944 29.1191 16.9269C29.1904 17.0266 29.1465 17.1124 29.0214 17.1672C28.9356 17.2046 28.8538 17.1832 28.8474 17.0949C28.8429 17.0338 28.8626 16.971 28.8831 16.9056C28.8923 16.876 28.9017 16.846 28.9092 16.8152ZM18.961 10.1841C19.0702 10.2335 19.1868 10.1552 19.1998 10.0236C19.2133 9.88449 19.13 9.77978 19.0073 9.80471C18.9385 9.81867 18.8613 9.86205 18.8184 9.91639C18.7595 9.99168 18.8408 10.1293 18.961 10.1841ZM1.87761 9.09528L1.87761 9.09527C1.84442 9.01661 1.8185 8.95516 1.81983 8.89459C1.82232 8.79936 1.98436 8.73555 2.09006 8.78989C2.13842 8.81482 2.19476 8.92401 2.17681 8.95741C2.14445 9.01731 2.09379 9.06723 2.0281 9.13195C1.99866 9.16096 1.9662 9.19294 1.93101 9.23013C1.91308 9.17936 1.89441 9.13511 1.87761 9.09528ZM18.1273 8.02273C18.1544 7.98996 18.1841 7.95419 18.2186 7.91557C18.1695 7.89658 18.1241 7.87392 18.0825 7.85322C18.0008 7.8125 17.9343 7.77939 17.8861 7.79691C17.7749 7.8363 17.7644 7.9749 17.7988 8.09456C17.8272 8.19328 17.897 8.23915 17.9713 8.1848C18.0266 8.14428 18.0717 8.08982 18.1273 8.02277L18.1273 8.02275L18.1273 8.02273ZM13.2145 7.98698C13.1781 8.16098 13.0849 8.22979 12.9622 8.21583C12.8346 8.20137 12.7588 8.09766 12.7942 7.9805C12.8406 7.82843 12.9273 7.74617 13.0265 7.79802C13.0856 7.82899 13.1313 7.88591 13.1703 7.93462C13.186 7.95412 13.2005 7.9723 13.2145 7.98698ZM20.9093 8.17947C21.027 8.25226 21.1307 8.22833 21.2199 8.06579C21.2128 8.04809 21.2067 8.0256 21.2 8.00109C21.1824 7.93723 21.1612 7.85966 21.1107 7.8175C21.0175 7.74072 20.8978 7.79756 20.8166 7.8868C20.7418 7.96907 20.7866 8.10319 20.9093 8.17947ZM4.21489 6.98377C4.18946 7.17223 4.08775 7.2515 3.97308 7.21361C3.82301 7.16425 3.76517 7.08847 3.7911 6.96881C3.82101 6.8312 3.92821 6.73897 4.02942 6.79281C4.09008 6.82531 4.13636 6.885 4.1745 6.9342L4.17451 6.93421C4.18904 6.95295 4.20238 6.97016 4.21489 6.98377ZM-3.64417 6.98946C-3.36979 7.04807 -3.06909 6.85591 -3.01083 6.58689C-2.94975 6.30058 -3.15366 6.05078 -3.4553 6.00562C-3.71559 5.96623 -3.85372 6.14205 -3.96554 6.30827C-4.08958 6.49178 -3.85466 6.94527 -3.64417 6.98946ZM26.9358 11.8132C26.9709 11.8323 27.0043 11.8472 27.0345 11.8606C27.0934 11.8868 27.1401 11.9076 27.1641 11.9438C27.2225 12.0301 27.1262 12.1732 26.9926 12.1866C26.9353 12.1916 26.8141 12.1133 26.8186 12.0939C26.8342 12.0221 26.8676 11.9538 26.9016 11.8845C26.9132 11.8609 26.9248 11.8372 26.9358 11.8132ZM21.7579 12.13C21.831 12.1114 21.9104 12.0911 22 12.0714C21.9352 12.0327 21.8803 11.9938 21.8296 11.9579C21.7288 11.8863 21.6449 11.8267 21.5327 11.8052C21.3123 11.7628 21.1379 11.8605 21.0272 11.9672C20.9272 12.0634 21.1173 12.215 21.3622 12.2045C21.4887 12.1988 21.6103 12.1678 21.7579 12.13ZM16.9719 11.8047C17.0781 11.7713 17.1464 11.8306 17.1938 11.9787C17.2212 12.0649 17.2072 12.1243 17.1274 12.1681C16.9799 12.2489 16.8258 12.1906 16.7974 12.0365C16.773 11.9024 16.8647 11.8455 16.9719 11.8047ZM13.1287 10.8558C13.1083 10.8232 13.0866 10.7887 13.0654 10.7506C13.0302 10.7761 12.9949 10.7979 12.9616 10.8186C12.8932 10.861 12.8329 10.8984 12.7967 10.952C12.7179 11.0702 12.8525 11.2387 13.0176 11.2492C13.1153 11.2557 13.2479 11.1415 13.2235 11.0453C13.2077 10.9815 13.1709 10.9229 13.1287 10.8558ZM-3.09395 12.1825C-3.09987 12.1572 -3.10639 12.1316 -3.11298 12.1058L-3.11298 12.1058L-3.11298 12.1058L-3.11299 12.1058L-3.11299 12.1058C-3.13026 12.038 -3.14797 11.9686 -3.15627 11.8979C-3.15976 11.8729 -3.10691 11.8151 -3.08447 11.8176C-3.01318 11.8251 -2.92792 11.8355 -2.87856 11.8794C-2.80776 11.9427 -2.85164 12.1068 -2.94537 12.1661C-2.96397 12.178 -2.9896 12.1785 -3.02516 12.1792C-3.04487 12.1796 -3.06763 12.1801 -3.09395 12.1825ZM26.1327 13.017C26.1413 12.9926 26.1499 12.9682 26.1595 12.9479C26.1141 12.8631 26.0493 12.8472 25.9576 12.8741C25.8589 12.9035 25.807 12.9663 25.8643 13.0481C25.9022 13.1014 26.0044 13.1498 26.0623 13.1353C26.0938 13.1277 26.1132 13.0724 26.1327 13.017ZM8.0208 20.8685C8.07055 20.9058 8.11981 20.9436 8.16906 20.9815L8.16938 20.9817C8.15703 20.9969 8.1456 21.015 8.13415 21.0331L8.13414 21.0331L8.13413 21.0332L8.13412 21.0332C8.10952 21.0721 8.08489 21.1111 8.05122 21.1213C7.91062 21.1657 7.77849 21.0565 7.85129 20.9727C7.87995 20.9396 7.92248 20.9186 7.96514 20.8976L7.96516 20.8976C7.98409 20.8883 8.00303 20.8789 8.0208 20.8685ZM18.9737 19.1205C18.9957 19.1291 19.0177 19.1377 19.036 19.1471C19.1258 19.1152 19.1691 19.0439 19.1183 18.9671C19.0931 18.9298 19.0459 18.9071 18.9987 18.8844C18.9777 18.8744 18.9568 18.8643 18.9378 18.853C18.9292 18.8729 18.9176 18.8936 18.906 18.9143C18.8793 18.962 18.8526 19.0098 18.862 19.0484C18.87 19.0798 18.9221 19.1003 18.9737 19.1205ZM18.1509 13.0455C18.0981 13.1392 17.9226 13.1766 17.8692 13.0929C17.8383 13.043 17.8313 12.9413 17.8627 12.8999C17.8916 12.8615 17.9889 12.8545 18.0502 12.865C18.1419 12.8805 18.1728 12.9538 18.1509 13.0455ZM31.1687 8.03589C31.2186 7.9641 31.0849 7.83945 30.9688 7.84494C30.9542 7.85719 30.9378 7.8686 30.9214 7.88C30.8843 7.9057 30.8474 7.93136 30.8322 7.96659C30.7848 8.07578 30.89 8.18247 31.0136 8.14907C31.072 8.13361 31.1338 8.08625 31.1687 8.03589ZM14.1197 1.99273C14.0911 2.01404 14.063 2.03536 14.035 2.05656L13.9796 2.09843C13.9462 2.04658 13.9132 1.99473 13.8803 1.94238C13.8901 1.9379 13.9005 1.93161 13.9109 1.9253C13.9341 1.91125 13.9574 1.89714 13.9736 1.90299C14.0105 1.91633 14.0436 1.93982 14.0771 1.96352C14.0911 1.97346 14.1052 1.98345 14.1197 1.99273ZM22.8896 8.10555C22.9544 8.18383 23.1014 8.12998 23.1488 8.02279C23.1702 7.93653 23.1368 7.86723 23.0441 7.85826C22.9808 7.85277 22.8841 7.87222 22.8566 7.91509C22.8302 7.95648 22.8517 8.05968 22.8896 8.10555ZM-6.88289 6.08484C-6.90306 6.08591 -6.9244 6.08923 -6.94571 6.09254C-6.99392 6.10003 -7.04196 6.1075 -7.07584 6.08883C-7.14215 6.05393 -7.1252 5.97416 -7.04892 5.9223C-7.022 5.90386 -6.95419 5.89388 -6.9497 5.90286C-6.92776 5.94598 -6.91271 5.99283 -6.89758 6.03993C-6.89277 6.05491 -6.88795 6.06992 -6.88289 6.08484ZM29.0486 4.88988C29.0307 4.87849 29.0129 4.86711 28.997 4.85477C28.9808 4.86635 28.9616 4.87727 28.9423 4.8882C28.8985 4.91304 28.8547 4.93789 28.8474 4.97044C28.8369 5.0198 28.8868 5.11603 28.9337 5.13547C29.0414 5.18034 29.1889 5.06168 29.1466 4.97692C29.1283 4.94077 29.0884 4.91531 29.0486 4.88988ZM31.1638 2.98962C31.1547 3.00845 31.1468 3.03047 31.1389 3.05249C31.1207 3.10336 31.1024 3.15429 31.07 3.16612C31.0162 3.18606 30.9205 3.15315 30.8711 3.11078C30.8018 3.05045 30.8422 2.86597 30.9364 2.83207C30.9842 2.81487 31.0585 2.85535 31.1155 2.88639L31.1229 2.8904C31.1397 2.89934 31.1466 2.92674 31.1535 2.95417L31.1535 2.95421L31.1535 2.95424C31.1566 2.96659 31.1597 2.97895 31.1638 2.98962ZM20.9965 1.1361C21.0181 1.14084 21.0397 1.14558 21.0591 1.152C21.1479 1.1176 21.1838 1.04979 21.1334 0.970517C21.099 0.91717 21.0347 0.856343 20.9769 0.848864C20.8727 0.835403 20.7999 0.994449 20.8737 1.08419C20.8985 1.11461 20.9476 1.12538 20.9965 1.1361ZM27.029 15.0667L27.0169 15.0706C26.9975 15.077 26.9778 15.0836 26.9743 15.0787C26.9573 15.0553 26.9429 15.0224 26.9464 14.9954C26.9487 14.977 26.9621 14.9602 26.9756 14.9433C26.9818 14.9355 26.988 14.9277 26.9932 14.9197C26.9995 14.925 27.007 14.9301 27.0144 14.9352C27.0311 14.9467 27.0479 14.9582 27.0521 14.973C27.0572 14.9915 27.052 15.0128 27.0468 15.0341C27.0444 15.0439 27.042 15.0537 27.0406 15.0633L27.0365 15.0644L27.029 15.0667ZM5.02633 13.9305L5.02631 13.9304C5.01971 13.915 5.0131 13.8996 5.00698 13.8841C4.99852 13.8903 4.98768 13.8969 4.97684 13.9036C4.95252 13.9186 4.92813 13.9336 4.9302 13.9429C4.93965 13.9862 4.95757 14.0279 4.97548 14.0695C4.98214 14.0849 4.9888 14.1004 4.99501 14.1159C5.0036 14.1091 5.01481 14.1019 5.02593 14.0947C5.04906 14.0797 5.07182 14.0649 5.0698 14.0551C5.06146 14.0124 5.04391 13.9714 5.02633 13.9305ZM12.0045 13.9343L12.0188 13.939C12.0405 13.9459 12.0622 13.9528 12.0663 13.9658C12.0943 14.0481 12.0554 14.0879 11.9686 14.0645C11.9477 14.059 11.9207 14.0127 11.9252 13.9912C11.9283 13.9746 11.9475 13.9609 11.9667 13.9472C11.9751 13.9412 11.9835 13.9352 11.9905 13.9289C11.9948 13.9308 11.9996 13.9326 12.0045 13.9343ZM20.9444 10.9543C20.9348 10.9598 20.9253 10.9653 20.9157 10.9696C20.9185 10.9777 20.9204 10.987 20.9223 10.9962C20.9263 11.0156 20.9302 11.0348 20.9417 11.0419C21.0259 11.0943 21.0808 11.0708 21.0843 10.9801C21.0848 10.9631 21.0354 10.9317 21.0085 10.9307C20.9874 10.9297 20.9659 10.942 20.9444 10.9543ZM2.01738 6.85351L2.01739 6.85351C2.06677 6.87737 2.10664 6.89664 2.12554 6.92848C2.1739 7.00875 2.09812 7.18624 2.01835 7.18824C1.96301 7.18923 1.85781 7.1309 1.8593 7.10348C1.86287 7.03556 1.88541 6.96867 1.90928 6.89785L1.90929 6.89783L1.9093 6.8978C1.91871 6.86985 1.92834 6.84129 1.93708 6.81181C1.96528 6.82833 1.99253 6.8415 2.01738 6.85351ZM11.1019 12.904C11.093 12.8948 11.084 12.8856 11.0764 12.876C10.9692 12.853 10.8306 12.9508 10.8556 13.0375C10.8645 13.0694 10.9029 13.1053 10.9358 13.1163C11.06 13.1572 11.1657 13.0814 11.1447 12.9667C11.1406 12.9438 11.1214 12.924 11.1019 12.904ZM20.1075 12.0093L20.0448 12.0619L19.9709 12.124C19.9659 12.1123 19.9607 12.1008 19.9556 12.0892L19.9509 12.0789L19.9509 12.0787L19.9508 12.0786L19.9508 12.0786C19.9287 12.0293 19.9067 11.9801 19.8926 11.9285C19.8896 11.9195 19.9704 11.8682 19.9828 11.8772C20.0172 11.9025 20.0453 11.9361 20.0736 11.9698C20.0847 11.9831 20.0959 11.9964 20.1075 12.0093ZM27.9333 17.9514C27.9221 17.9571 27.9109 17.9629 27.9002 17.967C27.9026 17.9756 27.9043 17.9856 27.906 17.9955C27.9099 18.0179 27.9137 18.0404 27.9261 18.0473C27.957 18.0647 28.0094 18.0797 28.0353 18.0647C28.1315 18.0104 28.1191 17.9545 28.0049 17.9301C27.9835 17.9256 27.9583 17.9386 27.9333 17.9514ZM17.0854 17.053C17.0777 17.0611 17.0706 17.0703 17.0635 17.0795C17.0487 17.0988 17.0342 17.1176 17.0156 17.1233C16.9294 17.1507 16.8805 17.0216 16.9423 16.9179C16.9512 16.9029 16.9713 16.8942 16.9913 16.8855C17.0005 16.8815 17.0096 16.8776 17.0176 16.873C17.0411 16.9343 17.064 16.9957 17.0854 17.053ZM9.05974 17.0422C9.06756 17.0342 9.07536 17.0263 9.08287 17.0201C9.07956 17.0107 9.07698 16.9996 9.07438 16.9885C9.06837 16.9628 9.06229 16.9367 9.04697 16.9294C9.02254 16.9169 8.96919 16.9269 8.94975 16.9473C8.88992 17.0102 8.91385 17.0625 9.00958 17.076C9.02442 17.0781 9.04213 17.06 9.05974 17.0422ZM6.97183 1.96887L7.04063 2.01025L6.95937 2.03119L6.97183 1.96887ZM6.04285 2.86542C6.04085 2.85744 5.97255 2.85445 5.97005 2.86193C5.96467 2.87671 5.95823 2.89205 5.9517 2.90759C5.92984 2.95965 5.90703 3.01398 5.9197 3.05737C5.95161 3.16756 6.03686 3.17155 6.07775 3.06435C6.09396 3.02228 6.07521 2.96556 6.05735 2.91156C6.05215 2.8958 6.04701 2.88028 6.04285 2.86542ZM24.9267 3.97516L24.9268 3.97513C24.9695 3.95084 25.0125 3.92646 25.058 3.909C25.066 3.90601 25.1164 3.96484 25.1134 3.99027C25.1014 4.08151 25.0401 4.11342 24.9563 4.07553C24.9363 4.06621 24.9215 4.04541 24.9067 4.02456L24.9067 4.02447C24.9001 4.01524 24.8935 4.006 24.8865 3.99775C24.8999 3.99037 24.9133 3.98277 24.9267 3.97516ZM6.99806 -0.884173C7.08481 -0.904116 7.11523 -0.968932 7.09429 -1.05618C7.08482 -1.06281 7.07511 -1.07153 7.06539 -1.08026L7.06537 -1.08027C7.04436 -1.09914 7.02328 -1.11806 7.00454 -1.11601C6.90782 -1.10405 6.87541 -1.04073 6.91729 -0.952478C6.93175 -0.922065 6.97662 -0.879188 6.99806 -0.884173ZM16.996 14.0419L16.9606 13.9582L17.0394 13.9616L16.996 14.0419ZM-1.95762 16.0417L-1.99651 15.9584L-2.04238 16.0377L-1.95762 16.0417ZM-8.03988 11.9235C-7.99999 11.9504 -7.96011 11.9773 -7.92072 12.0048C-7.92893 12.0125 -7.93723 12.0223 -7.94557 12.0321C-7.96458 12.0544 -7.98377 12.0769 -8.00249 12.0766C-8.02941 12.0761 -8.06481 12.0327 -8.07827 12.0003C-8.08312 11.9885 -8.06966 11.9688 -8.05615 11.9489C-8.05022 11.9403 -8.04429 11.9316 -8.03988 11.9235ZM8.02666 10.9159C8.01682 10.908 8.00699 10.9002 7.9995 10.8928C7.99288 10.9061 7.98558 10.9192 7.97826 10.9324C7.95967 10.966 7.94092 10.9998 7.93269 11.0359C7.92996 11.0482 7.95128 11.0659 7.97251 11.0834C7.98232 11.0916 7.9921 11.0997 7.9995 11.1072C8.00639 11.0934 8.01398 11.0798 8.02157 11.0662C8.04036 11.0325 8.05914 10.9989 8.06731 10.9626C8.07005 10.9506 8.0483 10.9332 8.02666 10.9159ZM12.9698 17.9923L13.0302 17.9709L13.0217 18.0292L12.9698 17.9923ZM6.03316 0.970614L5.96684 0.992054L6.02518 1.02945L6.03316 0.970614ZM6.03016 -1.99L5.96984 -1.97205L5.97981 -2.02789L6.03016 -1.99ZM11.0381 -1.92294C11.0511 -1.94986 11.0641 -1.97629 11.079 -2.0067C11.0711 -2.01418 11.063 -2.02372 11.0549 -2.03334C11.0364 -2.05514 11.0176 -2.07734 10.9993 -2.077C10.9809 -2.07665 10.9628 -2.05373 10.9448 -2.0309C10.9368 -2.02084 10.9289 -2.01079 10.921 -2.00271L11.0381 -1.92294Z" fill="white"/>
</g>
</g>
<defs>
<clipPath id="clip0">
<rect width="20" height="20" fill="white"/>
</clipPath>
</defs>
</svg>
