<svg width="25" height="25" viewBox="0 0 25 25" fill="none" xmlns="http://www.w3.org/2000/svg">
<path fill-rule="evenodd" clip-rule="evenodd" d="M9.99016 16.6636C13.6445 16.6649 16.6604 13.6881 16.6653 10.0748C16.6703 6.33891 13.7128 3.33271 10.0303 3.3303C6.32636 3.32789 3.3334 6.30308 3.33192 9.98882C3.33053 13.6711 6.31433 16.6623 9.99016 16.6636ZM15.7954 18.1465C11.1628 21.3781 5.27368 20.1414 2.15923 16.2003C-0.962804 12.2495 -0.67336 6.66058 2.8596 2.99762C6.30044 -0.569884 11.9509 -1.00275 15.9729 1.98141C20.1506 5.08113 21.422 11.1886 18.1575 15.7936C18.2132 15.8521 18.2697 15.9136 18.3288 15.9727C20.3799 18.0243 22.433 20.0738 24.4818 22.1277C25.3965 23.0447 25.0389 24.5486 23.8161 24.9197C23.1569 25.1197 22.5861 24.9392 22.1033 24.456C20.5053 22.8571 18.9063 21.2589 17.3078 19.6604C16.8064 19.1588 16.3053 18.6569 15.7954 18.1465Z" fill="white"/>
</svg>
