<svg width="50" height="51" viewBox="0 0 50 51" fill="none" xmlns="http://www.w3.org/2000/svg">
<path fill-rule="evenodd" clip-rule="evenodd" d="M12.3902 3.86493C12.3902 3.95318 12.3902 4.01518 12.3902 4.07718C12.3902 10.8937 12.3885 17.7104 12.393 24.5269C12.3935 25.2214 12.4062 25.9177 12.4587 26.6097C12.5517 27.8337 12.8537 29.0129 13.3255 30.1462C14.467 32.8879 16.3455 34.9752 18.9387 36.4157C20.1227 37.0734 21.3907 37.5074 22.7235 37.7484C23.6785 37.9212 24.6425 37.9789 25.6102 37.9242C27.8252 37.7987 29.8747 37.1467 31.735 35.9334C34.1555 34.3547 35.8442 32.1952 36.7997 29.4674C37.1607 28.4372 37.3712 27.3744 37.4432 26.2844C37.6197 23.6159 37.0297 21.1294 35.629 18.8512C34.1615 16.4642 32.1107 14.7562 29.5067 13.7182C28.5045 13.3187 27.4647 13.0629 26.3922 12.9444C23.4422 12.6189 20.7097 13.2442 18.196 14.8232C18.169 14.8402 18.1397 14.8539 18.098 14.8764C18.0955 14.8197 18.0917 14.7759 18.0917 14.7322C18.0915 10.3447 18.092 5.95718 18.0885 1.56968C18.0885 1.45543 18.1255 1.41243 18.2297 1.38368C19.3545 1.07418 20.4945 0.839427 21.6502 0.683677C23.057 0.493927 24.471 0.433677 25.8887 0.484427C27.0297 0.525177 28.163 0.647677 29.2885 0.846427C32.1565 1.35243 34.858 2.32343 37.373 3.78943C41.9022 6.42893 45.2915 10.1234 47.5337 14.8644C48.4565 16.8157 49.094 18.8594 49.4765 20.9827C49.7942 22.7477 49.9182 24.5279 49.8487 26.3187C49.6845 30.5657 48.5232 34.5219 46.3457 38.1744C44.9077 40.5862 43.107 42.6919 40.9572 44.4987C39.0405 46.1092 36.9282 47.4009 34.6235 48.3774C33.0947 49.0252 31.5152 49.5109 29.8882 49.8402C27.974 50.2274 26.0387 50.3919 24.0882 50.3129C23.245 50.2789 22.4012 50.2004 21.5635 50.0959C19.3715 49.8224 17.2617 49.2312 15.2287 48.3699C12.6645 47.2834 10.3445 45.8092 8.27548 43.9449C5.56848 41.5059 3.48498 38.6162 2.03598 35.2712C1.24723 33.4497 0.69148 31.5594 0.35673 29.6027C0.0684802 27.9174 -0.0505198 26.2197 0.0194802 24.5134C0.25723 18.7227 2.25173 13.6099 5.99973 9.19018C7.78798 7.08168 9.88923 5.33643 12.269 3.92793C12.3 3.90968 12.333 3.89443 12.3902 3.86493Z" fill="#FFC700"/>
<path fill-rule="evenodd" clip-rule="evenodd" d="M24.9319 32.9963C20.7406 32.9951 17.3346 29.5871 17.3391 25.3931C17.3436 21.1693 20.7889 17.7468 25.0434 17.8046C29.1681 17.8606 32.5316 21.2166 32.5299 25.4111C32.5281 29.5958 29.1181 32.9976 24.9319 32.9963Z" fill="#FFC700"/>
</svg>
