<svg width="27" height="27" viewBox="0 0 27 27" fill="none" xmlns="http://www.w3.org/2000/svg">
<path fill-rule="evenodd" clip-rule="evenodd" d="M17.9159 14.2363C19.8254 14.8952 21.5756 15.9837 23.046 17.454C25.5957 20.0039 27 23.394 27 27H24.8906C24.8906 20.7192 19.7808 15.6094 13.5 15.6094C7.21918 15.6094 2.10938 20.7192 2.10938 27H0C0 23.394 1.40426 20.0039 3.95408 17.454C5.42447 15.9837 7.17462 14.8952 9.08413 14.2363C7.03893 12.8277 5.69531 10.4703 5.69531 7.80469C5.69531 3.50119 9.19651 0 13.5 0C17.8035 0 21.3047 3.50119 21.3047 7.80469C21.3047 10.4703 19.9611 12.8277 17.9159 14.2363ZM7.80469 7.80469C7.80469 10.9451 10.3596 13.5 13.5 13.5C16.6404 13.5 19.1953 10.9451 19.1953 7.80469C19.1953 4.66425 16.6404 2.10938 13.5 2.10938C10.3596 2.10938 7.80469 4.66425 7.80469 7.80469Z" fill="white"/>
</svg>
