<svg width="32" height="28" viewBox="0 0 32 28" fill="none" xmlns="http://www.w3.org/2000/svg">
<path fill-rule="evenodd" clip-rule="evenodd" d="M20.033 3.28183C20.414 2.54845 20.1874 1.61119 19.5283 1.18777C18.8692 0.764654 18.0273 1.01557 17.6463 1.74895L13.9699 8.82916C13.59 9.56224 13.8155 10.5001 14.4757 10.9232C15.1348 11.3466 15.9778 11.0951 16.3577 10.362L20.033 3.28183ZM1.6083 10.0029H11.6555L11.6554 10.0315C11.6554 11.8952 13.0831 13.4063 14.8436 13.4063C16.604 13.4063 18.0317 11.8952 18.0317 10.0315L18.0316 10.0029H30.3922C31.2801 10.0029 32.0005 10.7581 32.0005 11.6901C32.0005 12.6216 31.2801 13.3771 30.3922 13.3771H29.3963L23.4237 27.9999H8.41698L2.44436 13.3771H2.35933H1.6083C0.719316 13.3771 0 12.6216 0 11.6901C0 10.7581 0.719316 10.0029 1.6083 10.0029ZM10.9701 15.5939H10.53C9.97819 15.5939 9.5315 16.0407 9.5315 16.592V23.6267C9.5315 24.178 9.97819 24.6251 10.53 24.6251H10.9701C11.5219 24.6251 11.9686 24.178 11.9686 23.6267V16.592C11.9686 16.0407 11.5219 15.5939 10.9701 15.5939ZM15.7172 15.5939H16.1891C16.7409 15.5939 17.1887 16.0407 17.1887 16.592V23.6267C17.1887 24.178 16.7409 24.6251 16.1891 24.6251H15.7172C15.1654 24.6251 14.7187 24.178 14.7187 23.6267V16.592C14.7187 16.0407 15.1654 15.5939 15.7172 15.5939ZM21.3446 15.5939H20.8727C20.322 15.5939 19.8742 16.0407 19.8742 16.592V23.6267C19.8742 24.178 20.322 24.6251 20.8727 24.6251H21.3446C21.8964 24.6251 22.3442 24.178 22.3442 23.6267V16.592C22.3442 16.0407 21.8964 15.5939 21.3446 15.5939Z" fill="#C8C8C8"/>
</svg>
