<svg width="20" height="20" viewBox="0 0 20 20" fill="none" xmlns="http://www.w3.org/2000/svg">
<path d="M19 10C19 14.9706 14.9706 19 10 19C5.02944 19 1 14.9706 1 10C1 5.02944 5.02944 1 10 1C14.9706 1 19 5.02944 19 10Z" stroke="#F92251" stroke-width="2"/>
<path fill-rule="evenodd" clip-rule="evenodd" d="M11.7105 13.1579L9.86843 11.9929L8.02632 13.1579C7.77198 13.1579 7.5658 12.9493 7.5658 12.6919V8.0318C7.5658 7.77444 7.77198 7.5658 8.02632 7.5658H11.7105C11.9649 7.5658 12.1711 7.77444 12.1711 8.0318V12.6919C12.1711 12.9493 11.9649 13.1579 11.7105 13.1579ZM11.7105 8.0318H8.02631V12.6919L9.86841 11.5269L11.7105 12.6919V8.0318Z" fill="white"/>
</svg>
