<svg width="15" height="11" viewBox="0 0 15 11" fill="none" xmlns="http://www.w3.org/2000/svg">
<path fill-rule="evenodd" clip-rule="evenodd" d="M2 0.214111C0.89543 0.214111 0 1.10954 0 2.21411V8.37882C0 9.48339 0.895431 10.3788 2 10.3788H13C14.1046 10.3788 15 9.48339 15 8.37882V2.21411C15 1.10954 14.1046 0.214111 13 0.214111H2ZM2.875 1.90826C2.32272 1.90826 1.875 2.35597 1.875 2.90826V7.68473C1.875 8.23701 2.32272 8.68473 2.875 8.68473H12.125C12.6773 8.68473 13.125 8.23701 13.125 7.68473V2.90826C13.125 2.35597 12.6773 1.90826 12.125 1.90826H2.875ZM7.51157 6.16005L7.51358 6.15824L4.22548 3.18188L3.29822 4.05247L4.69934 5.30641L3.27905 6.57325L4.24259 7.41106L5.64734 6.15484L6.57175 6.98215L6.5625 6.99057L7.5 7.83763L8.4375 6.99057L7.51157 6.16005ZM11.7317 4.02177L10.8049 3.18439L7.51074 6.15529L8.47428 6.99309L9.37503 6.17145L10.7257 7.40448L11.6879 6.57019L10.3152 5.31381L11.7317 4.02177Z" fill="#82868E"/>
</svg>
