<svg width="15" height="16" viewBox="0 0 15 16" fill="none" xmlns="http://www.w3.org/2000/svg">
<path fill-rule="evenodd" clip-rule="evenodd" d="M14.9435 5.70416C14.8147 5.31877 14.4823 5.03695 14.0811 4.97291L10.175 4.37417L8.48132 0.737321C8.30399 0.355405 7.92118 0.111084 7.50012 0.111084C7.07905 0.111084 6.69624 0.355405 6.51891 0.737321L4.82524 4.37292L0.91918 4.97166C0.517434 5.03601 0.184792 5.31842 0.0560903 5.70441C-0.0726115 6.09039 0.0239792 6.51593 0.306709 6.80852L3.16907 9.756L2.5066 13.8453C2.43635 14.2561 2.60797 14.6707 2.94796 14.9117C3.28796 15.1526 3.73603 15.1771 4.10028 14.9747L7.50012 13.0835L10.9 14.9747C11.0611 15.0627 11.2414 15.1095 11.4249 15.111C11.744 15.1104 12.0466 14.9695 12.2525 14.7258C12.4583 14.482 12.5465 14.16 12.4936 13.8453L11.8312 9.756L14.6935 6.80852C14.9764 6.51589 15.0728 6.09009 14.9435 5.70416ZM10.9625 8.96413C10.6664 9.32944 10.6184 9.54392 10.675 9.87663L11.3187 13.866L8.01259 12.0222C7.69399 11.8447 7.30624 11.8447 6.98764 12.0222L3.68155 13.866L4.32527 9.87663C4.38183 9.54392 4.27484 9.20432 4.03778 8.96413L1.25666 6.08916L5.05648 5.50416C5.40387 5.44832 5.70108 5.22411 5.85019 4.90541L7.50012 1.35919L9.15004 4.90604C9.29931 5.2245 9.59649 5.44845 9.94375 5.50416L13.7436 6.08978C13.7436 6.08978 12.2007 7.43601 10.9625 8.96413Z" fill="#F92251"/>
</svg>
