<svg width="15" height="16" viewBox="0 0 15 16" fill="none" xmlns="http://www.w3.org/2000/svg">
<path fill-rule="evenodd" clip-rule="evenodd" d="M7.5 0.164734C5.42893 0.164734 3.75 1.84367 3.75 3.91473V6.89709C3.75 7.12809 3.77089 7.35421 3.81087 7.57366C1.53559 8.55549 0 10.4175 0 12.5529C0 12.7591 0.0143159 12.9425 0.0422313 13.105C0.014563 13.2343 0 13.3684 0 13.5059C0 14.5585 0.853293 15.4118 1.90588 15.4118H13.0941C14.1467 15.4118 15 14.5585 15 13.5059C15 13.3684 14.9854 13.2343 14.9578 13.105C14.9857 12.9425 15 12.7591 15 12.5529C15 10.4175 13.4644 8.55549 11.1891 7.57366C11.2291 7.3542 11.25 7.12809 11.25 6.89709V3.91473C11.25 1.84366 9.57107 0.164734 7.5 0.164734ZM1.875 12.5529C1.875 11.1647 2.97019 9.94977 4.60702 9.28329C5.29483 10.1162 6.33542 10.6471 7.5 10.6471C8.66458 10.6471 9.70517 10.1162 10.393 9.28329C12.0298 9.94977 13.125 11.1647 13.125 12.5529C13.125 12.6746 13.1166 12.7823 13.1001 12.8771C13.1163 12.9249 13.125 12.9761 13.125 13.0294C13.125 13.2926 12.9117 13.5059 12.6485 13.5059H2.35147C2.08832 13.5059 1.875 13.2926 1.875 13.0294C1.875 12.9761 1.88375 12.9249 1.89988 12.8771C1.88342 12.7823 1.875 12.6746 1.875 12.5529ZM5.625 3.94559C5.625 2.91005 6.46447 2.07059 7.5 2.07059C8.53553 2.07059 9.375 2.91005 9.375 3.94559V6.86618C9.375 7.90171 8.53553 8.74118 7.5 8.74118C6.46447 8.74118 5.625 7.90171 5.625 6.86618V3.94559Z" fill="#82868E"/>
</svg>
